<svg id="Layer_1" data-name="Layer 1" xmlns="http://www.w3.org/2000/svg" viewBox="0 0 199.51 68.4"><defs><style>.cls-1{font-size:33.86px;font-family:Poppins-Medium, Poppins;font-weight:500;}.cls-1,.cls-3,.cls-4{fill:#0f1a28;}.cls-2{fill:none;}.cls-4{stroke:#fff;stroke-miterlimit:10;stroke-width:2px;}.cls-5{font-size:46px;font-family:Poppins-Light, Poppins;font-weight:300;}.cls-5,.cls-6{fill:#fff;}</style></defs><title>bt-logoArtboard 1 copy 3</title><text class="cls-1" transform="translate(77.31 46.23)">Budget</text><rect class="cls-2" x="31.81" y="58.42" width="4.78" height="12.89"/><path class="cls-3" d="M68.4,31.87V12a12,12,0,0,0-12-12H36.59V10.09H31.81V0H12A12,12,0,0,0,0,12V31.87H10v4.77H0V56.38a12,12,0,0,0,12,12h19.8v-10h4.78v10H56.38a12,12,0,0,0,12-12V36.64h-10V31.87Zm-34.2,26A23.69,23.69,0,1,1,57.88,34.2,23.69,23.69,0,0,1,34.2,57.88Z"/><circle class="cls-4" cx="34.2" cy="34.2" r="23.68" transform="translate(-6.94 8.77) rotate(-13.28)"/><text class="cls-5" transform="translate(21.18 50.72)">S</text><rect class="cls-6" x="32.51" y="14.25" width="3.38" height="39.9"/></svg>