<svg xmlns="http://www.w3.org/2000/svg" viewBox="0 0 1026.85 647.51"><defs><style>.cls-1{opacity:0.25;}.cls-2{opacity:0.4;}.cls-3{fill:#d3d3d3;}.cls-4,.cls-8{fill:#231f20;}.cls-5{fill:#eaeaea;}.cls-6{fill:#e1e2de;}.cls-7{fill:#c2c1c0;}.cls-8{stroke:#231f20;stroke-miterlimit:10;stroke-width:0.75px;}.cls-9{fill:#465977;}.cls-10{fill:#7b8da7;}.cls-11{fill:#ebc7bb;}.cls-12{fill:#020202;}.cls-13{opacity:0.2;}.cls-14{opacity:0.8;}</style></defs><title>not-found-imageArtboard 1</title><g id="Layer_9" data-name="Layer 9"><g class="cls-1"><path class="cls-2" d="M305,608.79c10.08-.73,15.88,2.22,15.88,2.22,8.07,4,18.78,16.27,18.78,16.27,6.42,4.92,7.68-.74,7.68-.74.76-1.48-5.29-9.61-5.29-9.61l8.82,7.88c4,3.94,6.56,4.19,6.56,4.19,15.87-1.23,20.16-5.67,21.92-8.62s-6.13-9.37-6.13-9.37c2.94-.24,2.29-3.2,2.29-3.2-6.36-14-58.41-20.21-58.41-20.21C302,591.54,305,608.79,305,608.79Z"/><path class="cls-2" d="M1007.27,496.35c0-23.79-75.58-44.59-188.18-55.84,2.45-12.05,4.78-20.54,4.78-20.54,8.19-23.66,2.41-26.12,2.41-26.12-22.65-4.44-29.4-2-29.4-2L773,395.69l.91-3.94c1.56-21.81,10.72-48.67,10.72-48.67,3.86-18-14.69-19.71-14.69-19.71H566.53c-10.23,24.11-15.18,50.81-17.57,70,5.46-45.57,17.57-70,17.57-70l-128.18-3c-30.84-2.46-28,37.71-28,37.71v.09l-9.22.05C393,341.63,378.11,348,378.11,348c-19.76,3-26.38-3.45-26.38-3.45-20.6-6.41-15.9,6.41-15.9,6.41a122.9,122.9,0,0,0,8.39,18.23h-1l-33.57,2c-19.27,0-15.9,3-15.9,3v13.7l3.37,6,33.62,9v9.76c-9.19-5-12.87-8.08-12.87-8.08-11.09-8.38-40.33-6.9-40.33-6.9s-38.31-2.47-56.46,28.13c-9.68,16.33-10,34-7.72,49.07-.09.8-.18,1.61-.26,2.42a3.1,3.1,0,0,1,.81.83c0,.24.09.48.13.72a12.86,12.86,0,0,0-6.73-6,6.6,6.6,0,0,0-3.6-1.08,6.84,6.84,0,0,0-.91.06,7.26,7.26,0,0,0-.93-.06,7.79,7.79,0,0,0-6.53,3.49s-4.25,1.69-9.16,19.8c0,0-2.65,10.72-6.05,15.15,0,0-14.71,23.2,10.6,39.51h0a6.41,6.41,0,0,0,5.88,1.75,5.41,5.41,0,0,0,1.21.14,5.63,5.63,0,0,0,4.17-1.89s4.28-4,3.94-14a16.51,16.51,0,0,1,.53-6.5l.14,0-.12-.05a11.59,11.59,0,0,1,2.52-4.51l4.1-4.44v5.67A74.59,74.59,0,0,1,224.66,533c.39,6.38.49,11,.49,11h12.92q2.52,2.29,5.22,4.93s1.45,1.58,3.91,3.94l-6.18,7.4-1.26,5.67c-15.62,22.67,3,34.5,3,34.5l15.63,2.71,9.32,1s14.37,2.22,15.88,2.47,8.32,0,8.32,0l9.32,3.2,3.78-1-.75-2.21c1.76-20.7,12.85-19,12.85-19l-1.51-1.48-7.82-2s-8.56-1-10.08-1.23-4-2.71-4.79-3-6.8-1.23-6.8-1.23L280.09,576c-2.59-.67-2.58-1.81-2.31-2.46a30.42,30.42,0,0,0,12.9,2s22.18-2.47,25.7-13.8a17.14,17.14,0,0,0,1.35-6.25,54.8,54.8,0,0,0,32.93.33l-1-4.31h4.54l-.5-5.54c.25-1.43.53-2.8.82-4.14q8.72,1.5,18,2.9c4.7,7,11.67,15.35,22,24.89,0,0,11.08,8.87,29.74,13.8V579s10.47-1.3,18.84-7.55c7.51,8.46,14.68,9.15,14.68,9.15,7.81,1.37,6.05-3.57,6.05-3.57l-4-4.69,8.07.5a28.2,28.2,0,0,1,10.59,5.42,15.65,15.65,0,0,0,12.6,1.72c1.76-.24-1-3.2-1-3.2,1.26,1,4.79,1.72,4.79,1.72,5.29-.49,5.79-1.47,5.79-1.47,1-2.47-1.26-4.44-1.26-4.44C492.05,559.26,461.81,558,461.81,558c-1.69-.26-6.61-34.29-7.47-36.08,52,12,105.11,25.47,163.47,39.18l49.21,12a33.28,33.28,0,0,1,10.35,9.36V589s1,5.92,13.5,3.45V585c11.65-2.87,31.58-14.87,49.5-26.82C895.06,549.89,1007.27,525.35,1007.27,496.35ZM183.76,510.1a29.6,29.6,0,0,0,3.65-7.39,31.47,31.47,0,0,1-3.29,7.39s-10.59,18.54,3.49,34.13C172,528.64,183.76,510.1,183.76,510.1Zm30.46-12.52c-.23,1.9-.71,5.92-1,10.18C213.39,504.94,213.72,501.56,214.22,497.58Zm.15-1.16c.32-2.38.69-5,1.15-7.76a15.72,15.72,0,0,0,.2-2.31c0,.07,0,.15.05.22A48.64,48.64,0,0,1,214.37,496.42Zm272.17-70.29c-13.57,1.09-21.89,5.41-26.88,10.94C469.43,425.81,486.54,426.13,486.54,426.13Z"/></g></g><g id="Layer_8" data-name="Layer 8"><path class="cls-3" d="M290,384.42v-14s-3.53-3,16.63-3l35.11-2H373.9l4.28,41.33h-23L293.5,390.57Z"/><path class="cls-4" d="M289.73,384.48a63.7,63.7,0,0,1-.48-7,28.75,28.75,0,0,1,.47-7.1l.09.19h0a.89.89,0,0,1-.54-.87,1.33,1.33,0,0,1,.46-.91,3.56,3.56,0,0,1,1.36-.73,16.83,16.83,0,0,1,2.71-.63c1.79-.27,3.59-.42,5.37-.51,3.59-.22,7.14-.06,10.69-.35l21.32-1.17,10.67-.55,10.68.05,21.37.19h.22l0,.22,4.28,41.34,0,.27H355.15l-61.72-16.13-.1,0-.05-.09Zm.48-.12,3.5,6.09-.15-.12,61.72,16.13h22.9l-.25.28-4.28-41.34.25.23h0l-21.35.19-10.68.05-10.65.66-21.32,1.27c-3.55.3-7.14.16-10.66.39-1.76.09-3.52.25-5.25.51a16,16,0,0,0-2.48.58,4.8,4.8,0,0,0-1,.46l-.27.16c-.08,0-.13.15-.1.33h0l.05.19a27.3,27.3,0,0,1,.47,6.91C290.64,379.63,290.5,382,290.21,384.36Z"/><path class="cls-3" d="M412,354s-3-41.09,29.24-38.57l134.08,3s-17.64,34.78-20.66,98.8L421,405.19Z"/><path class="cls-4" d="M410.75,354.18l-.07-.84,0-.76,0-1.52c0-1,0-2,0-3,.06-2,.21-4,.47-6.06a46.18,46.18,0,0,1,3-11.89,27.35,27.35,0,0,1,7-10.37,23.34,23.34,0,0,1,11.39-5.57c1-.16,2.09-.31,3.13-.41s2.1-.13,3.13-.08c2.06.1,4,.16,6,.21l11.86.35,23.73.7,47.46,1.56c15.83.52,31.64,1.18,47.47,1.77h.39l-.17.35a124.42,124.42,0,0,0-4.79,11.71c-1.45,4-2.71,8-3.92,12.05-2.38,8.11-4.32,16.34-6,24.63-.76,4.15-1.57,8.3-2.16,12.48-.3,2.09-.68,4.18-.93,6.27l-.78,6.29c-.28,2.1-.48,4.2-.67,6.31l-.59,6.31c-.32,4.21-.54,8.43-.82,12.65l0,.26-.26,0L421,405.44h-.19l0-.2Zm2.41-.3,8.1,51.27-.22-.21h0L554.63,417l-.27.24c.28-4.23.5-8.45.82-12.67l.59-6.32c.19-2.11.39-4.22.68-6.31l.78-6.3c.24-2.11.62-4.19.93-6.28.59-4.19,1.4-8.35,2.16-12.51,1.67-8.3,3.61-16.55,6-24.67,1.21-4.06,2.48-8.1,3.93-12.08a126.1,126.1,0,0,1,4.81-11.76l.22.36h0c-15.84-.13-31.68-.18-47.52-.37l-47.52-.59-23.76-.37-11.88-.18c-2,0-4-.06-5.86-.13-1,0-1.87.08-2.81.11s-1.84.25-2.74.4l-1.34.34-.67.16-.64.23-1.29.46-1.23.58-.61.29-.58.36-1.17.69a24.67,24.67,0,0,0-2.13,1.69,21.53,21.53,0,0,0-3.59,4.13,29.78,29.78,0,0,0-2.73,4.88,46.42,46.42,0,0,0-3.2,11c-.32,1.9-.55,3.83-.69,5.76q-.1,1.45-.15,2.91l0,1.45Z"/><path class="cls-3" d="M575.27,318.49H788s19.41,1.76,15.38,20.16c0,0-9.58,27.47-11.22,49.78l-7.68,32.39L725.24,441S658,427.68,554.61,417.29C554.61,417.29,555.74,363.48,575.27,318.49Z"/><path class="cls-4" d="M575.14,318.28c17.5-.37,35.16-.57,52.8-.88l53.18-.64q26.64-.28,53.39-.4c17.81-.14,35.65-.12,53.48-.17h.21a26.21,26.21,0,0,1,4,.8,25.74,25.74,0,0,1,3.76,1.39,18.51,18.51,0,0,1,6.63,4.93,15.74,15.74,0,0,1,2.25,3.65,16.46,16.46,0,0,1,1.15,4.08,22.74,22.74,0,0,1-.42,8.09l0,.13,0,.13c-1.36,4-2.62,8-3.84,12.06s-2.33,8.13-3.36,12.23-2,8.22-2.78,12.36-1.42,8.31-1.89,12.49v.17l0,.06c-1.41,5.37-2.87,10.72-4.34,16.08l-2.24,8-2.31,8h0l0,.14-.12,0-59.23,20.17-.07,0-.06,0c-14.1-2.69-28.27-5.05-42.45-7.29s-28.39-4.31-42.61-6.27-28.47-3.77-42.73-5.43c-7.12-.87-14.26-1.62-21.4-2.44l-21.42-2.25h0l-.21,0v-.23a183.43,183.43,0,0,1,.74-25.46c.37-4.23.92-8.44,1.5-12.65.28-2.11.67-4.2,1-6.3s.71-4.19,1.16-6.27a210.28,210.28,0,0,1,6.45-24.69c.69-2,1.36-4,2.07-6s1.57-4,2.36-5.93l1.22-2.94c.43-1,.93-2,1.41-3C573.25,322,574.22,320.11,575.14,318.28Zm.27.42-1.91,6-.94,2.89-.89,3c-.59,2-1.25,4-1.81,6s-1.1,4.06-1.65,6.08c-2.09,8.14-4.08,16.3-5.64,24.56-.44,2.06-.83,4.12-1.2,6.19s-.78,4.13-1.11,6.21-.74,4.14-1.06,6.22-.64,4.15-1,6.23q-1.86,12.49-3.36,25.09l-.23-.25h0l21.43,2.25c7.13.82,14.27,1.57,21.4,2.45,14.26,1.65,28.5,3.51,42.74,5.42s28.44,4,42.62,6.27,28.35,4.61,42.47,7.3h-.13l59.22-20.16-.16.18h0l1.54-8.18,1.6-8.18c1.09-5.44,2.19-10.88,3.34-16.3l0,.23A128.69,128.69,0,0,1,792,375.45c.68-4.25,1.44-8.49,2.38-12.69s2-8.35,3.11-12.5,2.36-8.23,3.75-12.35l-.08.26a18.25,18.25,0,0,0,.31-6.43,11.06,11.06,0,0,0-2.44-5.46,14.12,14.12,0,0,0-5-3.7,21.41,21.41,0,0,0-3.08-1.15,21.14,21.14,0,0,0-3.15-.66h.2c-17.62,0-35.23,0-52.87-.16s-35.28-.21-53-.4L629,319.58C611.15,319.27,593.37,319.07,575.41,318.7Z"/><path class="cls-4" d="M449.12,490.89l230.14,51s7.41,4.91,12,16.51v31.76s1,6,14.12,3.52V554s-.81-.47-4.69-6.35l-.36-18.26L692,525.47,449.12,478l-3.64,5.85Z"/><path class="cls-3" d="M691.21,541.92s2.58-65.49,7.59-105.65c0,0,4-32.59,38.28-35.36l79.14-12.35s7.06-2.52,30.75,2c0,0,6,2.52-2.52,26.72,0,0-9.07,32.26-10.59,60.74,0,0,2.53,11-12.09,18L752.2,532.85s-8.06,5.67-15.12,10.58a32.15,32.15,0,0,1-26.21,5.13S691.21,548.6,691.21,541.92Z"/><path class="cls-4" d="M690.19,541.9c.53-13.58,1.19-27.07,2-40.59s1.7-27,2.84-40.53c.6-6.75,1.21-13.5,2-20.24l.29-2.53.15-1.26.07-.63.1-.69a43.52,43.52,0,0,1,1.22-5.1,48.74,48.74,0,0,1,4.05-9.6,43.52,43.52,0,0,1,6.13-8.47,39.38,39.38,0,0,1,8.14-6.63,45.15,45.15,0,0,1,19.83-6.2h-.11l39.56-6.28L816,387l-.29.07a10.37,10.37,0,0,1,1.17-.29c.35-.06.7-.12,1-.16.68-.11,1.36-.16,2-.21,1.34-.1,2.67-.13,4-.12,2.64,0,5.26.19,7.87.45s5.19.58,7.77,1,5.14.85,7.7,1.33l.17,0,.14.06.27.14.15.1a2.1,2.1,0,0,1,.27.2,5.08,5.08,0,0,1,.41.39,5.85,5.85,0,0,1,.59.8,5.71,5.71,0,0,1,.42.81,6.72,6.72,0,0,1,.31.81,10.3,10.3,0,0,1,.37,1.58,9.1,9.1,0,0,1,.18,1.54,27.62,27.62,0,0,1-.27,5.92,72.48,72.48,0,0,1-2.66,11.13c-.54,1.81-1.21,3.57-1.77,5.31l-1.46,5.34c-.94,3.6-1.82,7.21-2.67,10.84q-2.57,10.88-4.53,21.87T834.11,478h0V478a7.6,7.6,0,0,1,.81,3.32,10.66,10.66,0,0,1-.44,3.41,16.5,16.5,0,0,1-3.36,5.92,22.79,22.79,0,0,1-5.07,4.39,24,24,0,0,1-2.85,1.66l-2.84,1.51-22.49,12-45.12,23.73.13-.08-9.44,6.55-4.71,3.28-1.18.82c-.41.31-.83.59-1.25.85-.84.54-1.71,1-2.59,1.47a36.38,36.38,0,0,1-5.49,2.25,33.64,33.64,0,0,1-5.8,1.24,31.9,31.9,0,0,1-11.8-.68l.25,0c-1.9,0-3.75-.12-5.62-.29a53.09,53.09,0,0,1-5.58-.78,23.87,23.87,0,0,1-5.52-1.69,9.14,9.14,0,0,1-2.58-1.75A4.59,4.59,0,0,1,690.19,541.9Zm2,0c0,1.23,1.26,2.35,2.8,3a22.18,22.18,0,0,0,5,1.52,52.94,52.94,0,0,0,5.37.74c1.8.15,3.64.25,5.43.26H711l.12,0a29.71,29.71,0,0,0,11,.61,30.57,30.57,0,0,0,5.43-1.18,33.89,33.89,0,0,0,5.14-2.12,27.21,27.21,0,0,0,2.4-1.39,13,13,0,0,0,1.12-.77c.38-.29.78-.55,1.17-.83l4.71-3.33,9.41-6.64.06,0,.07,0,45-24,22.56-11.89,2.79-1.48a23,23,0,0,0,2.66-1.53,20.07,20.07,0,0,0,4.55-3.9,14.9,14.9,0,0,0,2.94-5.06,33.93,33.93,0,0,0,1.46-5.86V478h0l.18-5.61.39-5.61c.32-3.73.68-7.46,1.18-11.18,1-7.43,2.27-14.81,3.77-22.16.77-3.67,1.58-7.33,2.46-11,.45-1.83.87-3.6,1.39-5.5s1.2-3.56,1.72-5.33A69.37,69.37,0,0,0,847.15,401a24.57,24.57,0,0,0,.25-5.25,8,8,0,0,0-.14-1.23,6.67,6.67,0,0,0-.27-1.15,3.7,3.7,0,0,0-.19-.5,1.92,1.92,0,0,0-.22-.43,1.88,1.88,0,0,0-.24-.33c0-.05-.06-.05-.09-.09h0l.12,0,.31.1c-2.52-.47-5-.92-7.57-1.3s-5.07-.71-7.6-.95-5.08-.4-7.59-.42c-1.26,0-2.52,0-3.75.1-.61.05-1.23.1-1.82.19l-.87.14c-.26.05-.6.14-.71.17l-.22.06h-.07L776.9,396.3l-39.59,6.07h-.11a42.25,42.25,0,0,0-18.59,5.68,36.61,36.61,0,0,0-7.59,6.11,41,41,0,0,0-5.78,7.9,46.27,46.27,0,0,0-3.87,9,40.28,40.28,0,0,0-1.17,4.76c-.23,1.56-.41,3.32-.61,5-.82,6.7-1.46,13.43-2.1,20.16-1.21,13.46-2.19,26.95-3.06,40.44S692.84,528.47,692.23,541.94Z"/><polygon class="cls-4" points="794.62 510.38 797.57 535.18 808.16 535.18 806.68 503.99 794.62 510.38"/><path class="cls-3" d="M692.77,510.38,458.33,468.67s-14.62-41.3,33.27-45.08l63-6.3s93.31,9.24,144.19,19Z"/><path class="cls-4" d="M692.92,510.58,458.29,468.91l-.15,0-.05-.14h0a44.1,44.1,0,0,1-2.25-16.17,30.09,30.09,0,0,1,5-15.59,29.73,29.73,0,0,1,12.92-10.2,55.47,55.47,0,0,1,16-4c10.82-1.17,21.57-2.36,32.37-3.45l32.37-3.31.12,0,.12,0c12.07,1.2,24.13,2.42,36.18,3.84S615,422.79,627,424.36s24,3.32,36,5.19c3,.45,6,.93,9,1.45s6,1,9,1.57l8.95,1.65,8.92,1.81h0l.22,0,0,.22Zm-.31-.4,5.94-73.93.2.27h0l-9-1.45-9-1.36c-3-.46-6-.86-9-1.27l-9-1.25c-12-1.67-24-3.08-36.07-4.57s-24.06-2.87-36.1-4.2-24.09-2.7-36.14-3.92h.24l-32.39,3.16-32.39,3a54,54,0,0,0-15.53,3.59,31.83,31.83,0,0,0-6.9,3.89,25.63,25.63,0,0,0-5.57,5.58,29,29,0,0,0-5.15,14.87,45,45,0,0,0,1.76,15.94h0l-.19-.16Z"/><path class="cls-5" d="M600.48,421.7s-12.6,4.25-4-8.4c0,0,12.6-23.74,16.13-51.46,0,0,0-24.7,10.08-20.67,0,0,13.1,9.08,34.78,8.57,0,0,40.83-6.55,29.23,10.59,0,0-20.66,28.84-21.67,62.05,0,0,3.13,9.28-3.78,8Z"/><path class="cls-4" d="M600.5,422a13.71,13.71,0,0,1-3.91.76,4.7,4.7,0,0,1-2.1-.35,2.36,2.36,0,0,1-1.39-1.78,7.44,7.44,0,0,1,.91-4.07,30.28,30.28,0,0,1,2-3.51l0,.05c2-4,3.72-8.18,5.36-12.36s3.12-8.44,4.44-12.73c.68-2.14,1.25-4.31,1.86-6.47s1.14-4.35,1.57-6.55c1-4.37,1.71-8.8,2.33-13.23v.13c0-2.27.16-4.47.4-6.7a46.06,46.06,0,0,1,1.16-6.65,17.68,17.68,0,0,1,2.83-6.42,6.2,6.2,0,0,1,3.21-2.26,6.29,6.29,0,0,1,4,.32l.09,0,.13.09a44.79,44.79,0,0,0,7.89,3.87,64.88,64.88,0,0,0,8.5,2.66,67.07,67.07,0,0,0,8.8,1.48c1.48.2,3,.23,4.45.33s3,0,4.47.06h-.14a115.76,115.76,0,0,1,13.4-1.18,66.66,66.66,0,0,1,6.77.16,29.87,29.87,0,0,1,6.79,1.23,11.67,11.67,0,0,1,3.25,1.67,5.76,5.76,0,0,1,2.14,3.32,7.22,7.22,0,0,1-.43,3.81c-.24.55-.5,1.1-.77,1.63l-.93,1.51a120.66,120.66,0,0,0-6.9,11.26c-2.13,3.87-4,7.87-5.8,11.91-.82,2-1.73,4.07-2.46,6.15l-1.15,3.11c-.36,1.05-.68,2.1-1,3.15a103.18,103.18,0,0,0-4.91,26h0v-.08a13.46,13.46,0,0,1,.91,4.56,5.43,5.43,0,0,1-.49,2.43,3.47,3.47,0,0,1-.84,1.07,3.55,3.55,0,0,1-1.22.63,6,6,0,0,1-2.53.08l-2.25-.26-4.5-.53q-9-1.1-17.93-2.35c-6-.81-11.93-1.73-17.91-2.69S606.53,423.19,600.5,422Zm0-.5c6,.48,12,1.11,18,1.85s12,1.55,18.07,2.46,12,1.81,18,2.8l4.49.75,2.25.39a5.16,5.16,0,0,0,2,.08,2.09,2.09,0,0,0,1.43-1,4.55,4.55,0,0,0,.53-2,14.58,14.58,0,0,0-.48-4.38v-.08A100,100,0,0,1,669,396a133.12,133.12,0,0,1,10.11-24.76,122,122,0,0,1,6.84-11.54l.8-1.34c.22-.47.43-.93.63-1.4a5.35,5.35,0,0,0,.3-2.73,3.83,3.83,0,0,0-1.43-2.11,9.61,9.61,0,0,0-2.66-1.33,27.7,27.7,0,0,0-6.29-1.1,62.16,62.16,0,0,0-6.55-.11,110.67,110.67,0,0,0-13.12,1.21l-.09,0h-.06c-1.53,0-3.07,0-4.6,0s-3.07-.12-4.6-.32a68.32,68.32,0,0,1-9.09-1.48,63.34,63.34,0,0,1-8.82-2.73A47,47,0,0,1,622,342.1l.22.12a4.08,4.08,0,0,0-2.52-.26,4,4,0,0,0-2.07,1.49,15.72,15.72,0,0,0-2.46,5.58,46.25,46.25,0,0,0-1.15,6.34c-.24,2.15-.39,4.33-.42,6.47V362a132.42,132.42,0,0,1-2.5,13.41c-.48,2.22-1.13,4.4-1.71,6.59s-1.27,4.36-2,6.5c-1.41,4.31-3,8.57-4.71,12.76s-3.64,8.29-5.77,12.32v0l0,0a28.35,28.35,0,0,0-2,3.32,6.75,6.75,0,0,0-.94,3.52,1.59,1.59,0,0,0,.9,1.25,4.09,4.09,0,0,0,1.77.36A13.72,13.72,0,0,0,600.46,421.45Z"/><path class="cls-3" d="M458.33,468.67,328.67,442.49V398.64H446.16l-.68,8.65,109.13,10-63,6.3S447.24,422.76,458.33,468.67Z"/><path class="cls-4" d="M458.51,468.84l-129.89-26.1-.2,0V398.39h.25c9.79-.71,19.58-.79,29.37-.76l29.37.09c9.79,0,19.58.16,29.37.23l14.69.19,14.69.25h.27l0,.27h0l-.69,8.65-.22-.27h0c9.13.47,18.24,1.14,27.34,1.86s18.2,1.59,27.29,2.47,18.18,1.72,27.26,2.69,18.17,1.91,27.24,3v.5h0c-5.23.76-10.47,1.42-15.7,2.11s-10.47,1.34-15.71,2-10.48,1.23-15.72,1.85-10.49,1.16-15.74,1.75h-.19a47.2,47.2,0,0,0-7.94.89,44.11,44.11,0,0,0-7.69,2.26,29,29,0,0,0-12.5,9.21,25.13,25.13,0,0,0-3.7,6.86,32.12,32.12,0,0,0-1.75,7.77c-.2,1.33-.22,2.68-.29,4-.05.68,0,1.36,0,2l0,2.06.31,4.13C458.29,466,458.36,467.54,458.51,468.84Zm-.36-.35c-.43-1.41-.93-2.64-1.28-3.81-.32-1.35-.62-2.74-.89-4.13a43.92,43.92,0,0,1-.61-8.52,31.59,31.59,0,0,1,1.39-8.58,25.5,25.5,0,0,1,3.92-7.9,28.33,28.33,0,0,1,6.28-6.23,35.59,35.59,0,0,1,7.7-4.15,46.38,46.38,0,0,1,8.32-2.39,45.71,45.71,0,0,1,8.65-.83h-.19c5.25-.47,10.5-1,15.76-1.4s10.52-.91,15.78-1.31,10.53-.82,15.79-1.17,10.53-.75,15.81-1h0v.5q-13.67-.92-27.32-2c-9.11-.69-18.2-1.5-27.3-2.3s-18.2-1.59-27.28-2.54-18.16-1.93-27.22-3.13h0l-.24,0,0-.24.68-8.65h0l.25.27-14.69.25-14.69.18c-9.79.08-19.58.22-29.37.23l-29.37.09c-9.79,0-19.58,0-29.37-.75h0l.25-.25v43.85l-.2-.24Z"/><path class="cls-6" d="M370.66,406.7s-28-35.28-36.7-60c0,0-4.93-13.11,16.62-6.56,0,0,6.93,6.56,27.6,3.53,0,0,15.63-6.55,24.2,10.59l14,46.63-18.72,5.79Z"/><path class="cls-4" d="M370.55,406.93c-.44-.47-.69-.83-1-1.21l-.92-1.15-1.82-2.31c-1.21-1.54-2.39-3.1-3.57-4.66-2.35-3.14-4.69-6.28-6.92-9.5-4.49-6.43-8.84-13-12.79-19.75a136.41,136.41,0,0,1-10.33-21.22,9.66,9.66,0,0,1-.59-3.15,6.58,6.58,0,0,1,.74-3.27,5.55,5.55,0,0,1,2.5-2.32,9.28,9.28,0,0,1,3.11-.8c4.18-.27,8,.94,11.7,2.33h0l.07.05a12.65,12.65,0,0,0,3,1.62,22.59,22.59,0,0,0,3.33,1,37.42,37.42,0,0,0,6.92,1,63.08,63.08,0,0,0,7-.07l3.49-.34,3.49-.47-.24.06a20,20,0,0,1,3.73-1c.63-.13,1.27-.17,1.9-.26s1.28-.07,1.92-.08a18.08,18.08,0,0,1,7.51,1.61,10.76,10.76,0,0,1,1.72.89A9.22,9.22,0,0,1,396.2,345l1.51,1.2,1.34,1.37.67.7.57.76,1.13,1.53c.68,1.07,1.27,2.19,1.9,3.28l0,.06,0,.11q3.44,11.67,6.74,23.38c1.1,3.91,2.24,7.8,3.29,11.72s2.15,7.82,3.17,11.75h0l.08.24-.24.07-18.72,5.8h-.08a62.46,62.46,0,0,1-6.83.56c-2.29.09-4.57.07-6.85,0C379.4,407.49,374.89,407.31,370.55,406.93Zm.22-.45c4.66-.38,9.13-.56,13.57-.63,2.22,0,4.43-.05,6.64,0a62.78,62.78,0,0,1,6.65.56h-.07l18.72-5.79-.16.31h0c-1.3-3.84-2.54-7.7-3.81-11.56s-2.47-7.73-3.7-11.59q-3.71-11.6-7.23-23.24l.06.17c-.6-1-1.14-2.05-1.78-3l-1-1.39-.53-.7-.6-.62-1.21-1.24-1.35-1a9.53,9.53,0,0,0-1.43-.94A9.87,9.87,0,0,0,392,345a16.13,16.13,0,0,0-6.65-1.47,19.73,19.73,0,0,0-6.77,1.08l-.16.06h-.08l-3.57.4-3.6.21c-1.21,0-2.41.05-3.61,0s-2.41-.09-3.6-.25a33,33,0,0,1-7.09-1.4,17.54,17.54,0,0,1-6.44-3.3l.1,0h0c-1.92-.39-3.83-.76-5.74-1a23.78,23.78,0,0,0-5.64-.15c-1.79.24-3.52.9-4.24,2.33a6.36,6.36,0,0,0-.07,5,134.55,134.55,0,0,0,10.07,21c3.88,6.77,8,13.39,12.41,19.86,2.18,3.25,4.4,6.46,6.65,9.66,1.14,1.59,2.27,3.18,3.43,4.76l1.73,2.37.87,1.17C370.26,405.77,370.6,406.17,370.77,406.48Z"/><path class="cls-5" d="M399,410.48s-22.31-32.19-28.31-49.14c0,0-6.93-8.57,14.16-7.06l31.85-.18s8-1.84,16,13.28c0,0,11.14,15.63,17.88,27.73,0,0,5.11,5,3.41,11.59Z"/><path class="cls-4" d="M398.87,410.71a5.3,5.3,0,0,1-.38-.43l-.28-.35-.55-.7-1.09-1.41c-.72-.94-1.45-1.88-2.15-2.84q-2.12-2.87-4.15-5.79-4.08-5.83-7.84-11.9t-7.13-12.37a60.06,60.06,0,0,1-2.94-6.55c-.42-1.12-.79-2.27-1.15-3.41s-.58-2.35-.79-3.54l.05.07h0a4,4,0,0,1-1.84-2.28,3.59,3.59,0,0,1,.63-3.3,6.15,6.15,0,0,1,2.55-1.8,14.35,14.35,0,0,1,2.68-.75,43.94,43.94,0,0,1,10.42-.24h-.09l15.93,0,15.92,0-.22,0a6.88,6.88,0,0,1,1.67-.06,10.81,10.81,0,0,1,1.51.25,12.5,12.5,0,0,1,2.77,1.06,18.19,18.19,0,0,1,4.6,3.47c.7.65,1.26,1.41,1.9,2.11s1.14,1.5,1.67,2.27,1,1.56,1.49,2.37L433.4,367l0-.09c3.15,4.53,6.16,9.14,9.09,13.8s5.78,9.39,8.36,14.26h0l0-.06a8.08,8.08,0,0,1,2.58,2.17,9.88,9.88,0,0,1,1.61,3,8.16,8.16,0,0,1,.42,3.43,6.42,6.42,0,0,1-1.14,3.23h0l0,.15-.19,0c-4.56.74-9.19,1.28-13.83,1.74s-9.29.83-13.93,1.14-9.26.54-13.84.69S403.28,410.77,398.87,410.71Zm.21-.45c4.76-.7,9.38-1.23,14-1.7s9.13-.86,13.67-1.21,9-.59,13.58-.75,9.07-.26,13.67-.15l-.22.19h0c-.22-1.11-.27-2.07-.49-3a25.13,25.13,0,0,0-.69-2.75c-.55-1.82-1.35-3.58-2.17-5.58l0-.06h0c-2.81-4.72-5.8-9.33-8.87-13.89s-6.25-9-9.45-13.49v0l0-.07-1.36-2.34c-.47-.76-1-1.49-1.48-2.24s-1.08-1.42-1.63-2.12-1.15-1.36-1.81-1.93a16.23,16.23,0,0,0-4.19-3.05,10.83,10.83,0,0,0-2.35-.84,7.37,7.37,0,0,0-1.21-.18,5,5,0,0,0-1.06,0l-.11,0h-.12l-15.92.16-15.93.15h-.09a42.12,42.12,0,0,0-9.81.27c-1.51.29-3.1.83-3.77,1.7a2.48,2.48,0,0,0-.53,1.47,11.38,11.38,0,0,0,.23,2.31h0l0,.07c2.41,4.12,4.74,8.16,7,12.3,1.1,2.07,2.24,4.13,3.38,6.19l3.51,6.14Q388.34,392,392,398.1l3.62,6.11,1.8,3.06.9,1.53.45.77.22.39A1.69,1.69,0,0,1,399.08,410.26Z"/><polygon class="cls-7" points="691.96 525.48 445.48 478.03 440.91 465.15 692.77 510.38 691.96 525.48"/><path class="cls-4" d="M692.12,525.67l-246.69-47.4-.14,0-.05-.14-4.57-12.87-.13-.4.41.07c5.28.78,10.55,1.61,15.81,2.45s10.54,1.64,15.79,2.54l31.55,5.28q31.53,5.38,63,11.21c21,3.84,42,7.6,62.9,11.61s41.91,8,62.82,12.13l.22.05v.21C692.75,515.49,692.44,520.6,692.12,525.67Zm-.31-.39c.22-5,.44-9.95.71-14.91l.2.26q-31.59-5.06-63.11-10.49c-21-3.53-42-7.3-63-11s-42-7.47-63-11.41l-31.41-6c-5.24-1-10.46-2.07-15.69-3.11s-10.46-2.1-15.67-3.2l.28-.33L445.71,478l-.19-.17Z"/><ellipse class="cls-5" cx="454.17" cy="359.6" rx="3.02" ry="3.88"/><path class="cls-4" d="M457.33,359.6a5.16,5.16,0,0,1-.76,2.67,3,3,0,0,1-2.4,1.45,3.11,3.11,0,0,1-2.51-1.38,4.81,4.81,0,0,1-.84-2.74,4.71,4.71,0,0,1,.83-2.75,2.86,2.86,0,0,1,5,.07A4.74,4.74,0,0,1,457.33,359.6Zm-.27,0a4.42,4.42,0,0,0-.8-2.45,2.36,2.36,0,0,0-4.09.07,4.46,4.46,0,0,0,0,4.78,2.55,2.55,0,0,0,2,1.24,2.62,2.62,0,0,0,2.12-1.17A4.14,4.14,0,0,0,457.06,359.6Z"/><ellipse class="cls-5" cx="504.64" cy="363.48" rx="3.4" ry="4.36"/><path class="cls-4" d="M508.18,363.48a6,6,0,0,1-.84,3,3.4,3.4,0,0,1-2.7,1.65,3.5,3.5,0,0,1-2.85-1.54,5.54,5.54,0,0,1,0-6.22,3.24,3.24,0,0,1,5.62.1A5.4,5.4,0,0,1,508.18,363.48Zm-.27,0a4.9,4.9,0,0,0-.92-2.75,2.63,2.63,0,0,0-4.56.09,5,5,0,0,0-.77,2.66,4.89,4.89,0,0,0,.74,2.67,2.87,2.87,0,0,0,2.24,1.4,2.93,2.93,0,0,0,2.39-1.29A4.52,4.52,0,0,0,507.91,363.48Z"/><line class="cls-3" x1="686.67" y1="478.03" x2="469.92" y2="443"/><path class="cls-4" d="M686.67,478l-27.14-4q-13.57-2-27.14-4.13c-18.08-2.8-36.17-5.57-54.23-8.48L524,452.71l-13.54-2.26c-4.51-.76-9-1.56-13.52-2.37-9-1.6-18-3.26-27-5.07v0c9.08,1.11,18.15,2.37,27.2,3.69q6.8,1,13.58,2l13.56,2.11,54.17,8.85c18.06,2.93,36.1,6,54.14,9q13.53,2.28,27.06,4.63l27,4.71Z"/><line class="cls-3" x1="449.12" y1="439.21" x2="345" y2="422.38"/><path class="cls-4" d="M449.12,439.21c-8.74-1-17.42-2.36-26.11-3.69l-26-4.2L371,427c-8.67-1.42-17.33-2.94-26-4.41l.07-.49c8.69,1.34,17.39,2.62,26.07,4l26,4.14,26,4.22C431.84,436,440.51,437.42,449.12,439.21Z"/><path class="cls-4" d="M312.4,398.64c-.08-1.58-.14-3.15-.16-4.73s-.06-3.15,0-4.72a63.77,63.77,0,0,1,.45-9.46,63.78,63.78,0,0,1,.46,9.46c0,1.57,0,3.15,0,4.72s-.08,3.15-.17,4.73Z"/><path class="cls-6" d="M683.5,349.72s1.72-27.2,15.3-16.61c0,0,17.62,11.55,69,16.61,0,0,31.89-5,26.78,4.31,0,0-19.13,25.49-15.65,40.34l-41.88,6.54s-33.21,2.43-38.28,35.36l-37.58-5.88s6.3,1.12,3.78-8c0,0,1-33.82,21.67-62.05C686.67,360.33,693.44,353.73,683.5,349.72Z"/><path class="cls-4" d="M683.29,349.85a.93.93,0,0,1,0-.38v-.23l0-.46.06-.92c0-.61.09-1.23.16-1.84.12-1.22.31-2.44.54-3.66a31,31,0,0,1,2.14-7.16,12.9,12.9,0,0,1,2.13-3.28,6.87,6.87,0,0,1,3.59-2.12,7.4,7.4,0,0,1,4.16.44,14.46,14.46,0,0,1,3.43,2l-.07-.06a37.15,37.15,0,0,0,3.84,1.92c1.33.59,2.7,1.12,4.06,1.66,2.75,1,5.54,2,8.36,2.84,5.65,1.7,11.37,3.19,17.17,4.37,2.88.65,5.8,1.17,8.7,1.73s5.84,1,8.76,1.46l8.81,1.2,8.83,1h-.34c2.6-.37,5.17-.66,7.76-.88s5.2-.37,7.82-.36a38.56,38.56,0,0,1,7.95.69,8.5,8.5,0,0,1,4,1.87,2,2,0,0,1,.43.51,2.45,2.45,0,0,1,.36.6c.08.23.16.46.22.7a3.21,3.21,0,0,1,.05.69v.35l-.06.31-.15.62c-.14.38-.31.72-.47,1.07l0,0-.06.08c-2.17,2.89-4.23,6-6.15,9.07s-3.72,6.31-5.33,9.6a59.58,59.58,0,0,0-4,10.19,24.44,24.44,0,0,0-.81,10.77h0l0,.27-.25,0-41.88,6.53h0a48.62,48.62,0,0,0-13.47,3.58,43.48,43.48,0,0,0-11.83,7.34,40.39,40.39,0,0,0-4.79,5.08,41,41,0,0,0-3.75,5.88,44.4,44.4,0,0,0-4.21,13.27h0l0,.2h-.27a54.78,54.78,0,0,1-9.51-.71c-3.13-.51-6.26-1-9.38-1.54s-6.25-1.1-9.36-1.7c-1.56-.29-3.12-.61-4.67-.93s-3.11-.64-4.66-1h0l.08-.49a3.91,3.91,0,0,0,2.47-.44,3.1,3.1,0,0,0,1.42-2,2.78,2.78,0,0,0,.12-.64c0-.22.06-.43.06-.65a9.87,9.87,0,0,0-.06-1.33,19.69,19.69,0,0,0-.51-2.63h0v-.07a76.07,76.07,0,0,1,1-16.78,98.18,98.18,0,0,1,4.06-16.35c.84-2.69,2-5.28,3-7.9.58-1.28,1.16-2.57,1.77-3.84.3-.63.59-1.28.91-1.9l1-1.86c.68-1.24,1.33-2.49,2-3.71l2.27-3.56c.39-.59.75-1.2,1.15-1.77l1.25-1.71,2.54-3.37.07-.09.05-.05a8.37,8.37,0,0,0,1.76-2.41,3.94,3.94,0,0,0,.31-2.77,5.68,5.68,0,0,0-1.71-2.5c-.44-.34-.85-.68-1.34-1Zm.42-.26,1.56.52a16.31,16.31,0,0,1,1.6.83,6.83,6.83,0,0,1,2.54,2.84,5.71,5.71,0,0,1,.06,4,9.56,9.56,0,0,1-2,3.38l.12-.15a133,133,0,0,0-8,14.3l-.9,1.83c-.28.62-.54,1.26-.81,1.89l-1.64,3.75c-1,2.55-2,5.08-2.84,7.68a206.51,206.51,0,0,0-8.14,31.92v-.07h0a18.82,18.82,0,0,1,.53,2.71,10.78,10.78,0,0,1,.06,1.39,5.69,5.69,0,0,1-.07.71,2.87,2.87,0,0,1-.13.7,3.55,3.55,0,0,1-1.65,2.3,4.43,4.43,0,0,1-2.81.5l.09-.49h0c1.59.13,3.16.3,4.74.47s3.15.34,4.73.54q4.72.57,9.43,1.24c3.14.43,6.27.92,9.4,1.4a53.8,53.8,0,0,1,9.28,2.23l-.29.2h0a45.25,45.25,0,0,1,4.25-13.43,38,38,0,0,1,8.66-11.11,44.52,44.52,0,0,1,12-7.43,48.86,48.86,0,0,1,13.62-3.6h0l41.88-6.54-.2.31h0a24.11,24.11,0,0,1,.28-11.14,60.52,60.52,0,0,1,3.63-10.57,93.65,93.65,0,0,1,5.09-9.92c1.88-3.22,3.86-6.34,6-9.4l-.08.13c.09-.24.21-.48.3-.7s.14-.46.08-.62a1.13,1.13,0,0,0-.44-.92,6.44,6.44,0,0,0-3-1.19,35.73,35.73,0,0,0-7.43-.46A124.89,124.89,0,0,0,768,351.07l-.17,0-.17,0-8.91-.93L749.9,349c-2.95-.48-5.91-.91-8.85-1.43s-5.89-1.05-8.81-1.73a171,171,0,0,1-17.38-4.6,80.61,80.61,0,0,1-16.69-7.16l0,0,0,0c-1.78-1.4-3.85-2.58-5.82-2.27s-3.57,2.16-4.68,4.17a29.79,29.79,0,0,0-2.49,6.69c-.3,1.17-.55,2.35-.78,3.54-.12.6-.23,1.2-.32,1.8l-.14.9-.06.45,0,.22C683.75,349.58,683.8,349.72,683.71,349.59Z"/><line class="cls-3" x1="840.92" y1="393.6" x2="780.43" y2="412.75"/><path class="cls-4" d="M840.92,393.6q-7.45,2.73-15,5.26t-15.05,5c-5,1.61-10.06,3.25-15.13,4.76s-10.17,2.92-15.33,4.12v0c4.91-2,9.89-3.78,14.91-5.45s10.06-3.24,15.11-4.82,10.12-3.08,15.2-4.55S835.81,395,840.92,393.6Z"/><path class="cls-3" d="M728.19,538.13s3.35-76.48,12.42-95.13"/><path class="cls-4" d="M728.18,538.13q.2-12,.92-24.06.35-6,.77-12t1.07-12c.8-8,1.67-16,3-23.92.69-4,1.48-7.91,2.5-11.81.51-1.95,1.06-3.89,1.75-5.79a35.33,35.33,0,0,1,2.39-5.54,69.49,69.49,0,0,0-3.07,11.57c-.76,3.92-1.4,7.87-2,11.83-1.16,7.91-2.2,15.85-3,23.82-.43,4-.81,8-1.18,12s-.78,8-1.13,12l-2,24Z"/></g><g id="shoe"><path class="cls-8" d="M205.25,540h0c-25.31-16.68-10.6-40.4-10.6-40.4,3.4-4.54,6-15.5,6-15.5,4.91-18.52,9.16-20.25,9.17-20.25a7.73,7.73,0,0,1,4.69-3.34,7.42,7.42,0,0,0-1.78-.23,7.75,7.75,0,0,0-6.52,3.57s-4.25,1.73-9.17,20.25c0,0-2.64,11-6.05,15.5,0,0-14.7,23.72,10.61,40.4h0a6.44,6.44,0,0,0,4.61,1.94,6.27,6.27,0,0,0,1.8-.26A6.61,6.61,0,0,1,205.25,540Z"/><path class="cls-9" d="M218.22,461.37a6.45,6.45,0,0,0-3.59-1.11,6.86,6.86,0,0,0-5.89,3.57s-3.84,1.73-8.28,20.25c0,0-2.38,11-5.46,15.5,0,0-13.27,23.72,9.58,40.4h0a5.43,5.43,0,0,0,8.32,0s4.29-4.11,3.95-14.32c0,0-1-6.8,3.07-11.34l4.09-4.53s-1.36-8.32,2.39-32.14C226.4,477.65,228.65,465.82,218.22,461.37Z"/><path class="cls-4" d="M218,461.81a6.4,6.4,0,0,0-2.36-1.06,6.07,6.07,0,0,0-2.58,0,6.9,6.9,0,0,0-4.19,3.1h0l0,0,0,0a6.34,6.34,0,0,0-1.54,1.74,20.24,20.24,0,0,0-1.18,2.08,41.82,41.82,0,0,0-1.85,4.43,95.73,95.73,0,0,0-2.73,9.23c-.38,1.56-.73,3.12-1.1,4.71s-.78,3.13-1.23,4.69a37.08,37.08,0,0,1-3.72,9l0,0a35.45,35.45,0,0,0-3.31,10.63,30.34,30.34,0,0,0,.37,11.08,28,28,0,0,0,4.57,10,36.13,36.13,0,0,0,7.92,7.79l-1.17.6,1.29-.49a4.69,4.69,0,0,0,7.2,0l0-.05a11.38,11.38,0,0,0,1.86-3,18,18,0,0,0,1.16-3.45,23.43,23.43,0,0,0,.57-3.63c.06-.61.07-1.23.1-1.85v-1.76a18,18,0,0,1,.07-4.76,13.57,13.57,0,0,1,1.46-4.54,13.91,13.91,0,0,1,3-3.66c1.09-1.06,2.2-2.1,3.35-3.1l0,0,0,.11a49.12,49.12,0,0,1-.28-6.52c0-2.17.11-4.34.27-6.5.28-4.33.73-8.65,1.28-13,.27-2.15.59-4.31.9-6.44a18.33,18.33,0,0,0-.31-6.31A13.4,13.4,0,0,0,223,465.5,14.3,14.3,0,0,0,218,461.81Zm.48-.88a13.79,13.79,0,0,1,5.31,3.95,14.4,14.4,0,0,1,2.83,6,19.07,19.07,0,0,1,.21,6.61c-.34,2.15-.7,4.27-1,6.42-.62,4.28-1.14,8.58-1.49,12.89-.19,2.16-.3,4.32-.36,6.48a46.54,46.54,0,0,0,.17,6.47v.05l0,.05,0,0c-.88,1.25-1.8,2.46-2.74,3.65-.46.59-1,1.18-1.38,1.75a11.71,11.71,0,0,0-1.07,1.85,14.17,14.17,0,0,0-1.18,4.11,16.77,16.77,0,0,0-.09,4.3v2c0,.65-.06,1.3-.12,1.95a27,27,0,0,1-.62,3.86,20.71,20.71,0,0,1-1.28,3.72,12.59,12.59,0,0,1-2.2,3.42l0,0a6.19,6.19,0,0,1-9.45,0l1.3-.49-1.18.6a37.33,37.33,0,0,1-8.21-8.15,28.65,28.65,0,0,1-4.74-10.58,31.87,31.87,0,0,1-.23-11.56,36.49,36.49,0,0,1,3.58-11h0l0,0a36.16,36.16,0,0,0,3.7-8.72c.48-1.53.93-3.07,1.33-4.62s.79-3.12,1.21-4.68c.86-3.11,1.8-6.21,3-9.22a39.88,39.88,0,0,1,2-4.43,18.32,18.32,0,0,1,1.25-2.09,6.28,6.28,0,0,1,1.69-1.8l-.06,0h0a7.28,7.28,0,0,1,4.23-3.59,6.66,6.66,0,0,1,2.88-.23A7,7,0,0,1,218.46,460.93Z"/><path class="cls-4" d="M214.56,504a15.31,15.31,0,0,0,.63,6.53,10.19,10.19,0,0,0,1.49,2.85,9.29,9.29,0,0,0,2.32,2.15l-.56.82a10,10,0,0,1-2.37-2.54,10.8,10.8,0,0,1-1.36-3.14,14.58,14.58,0,0,1-.44-3.34A16.11,16.11,0,0,1,214.56,504Z"/><path class="cls-4" d="M210.82,510.38a8.65,8.65,0,0,0,2.26,4.7,6.56,6.56,0,0,0,2.08,1.47,8.38,8.38,0,0,0,2.45.7l-.18,1a9.84,9.84,0,0,1-2.62-1,7.35,7.35,0,0,1-2.11-1.81A9,9,0,0,1,210.82,510.38Z"/><path class="cls-4" d="M210,515.82a6.86,6.86,0,0,0,3.33,2.7,5.38,5.38,0,0,0,2.06.34,7.17,7.17,0,0,0,2-.35l.26,1a7.67,7.67,0,0,1-2.34.14,5.82,5.82,0,0,1-2.24-.63,7.19,7.19,0,0,1-3.14-3.15Z"/></g><g id="leg"><path class="cls-6" d="M224,509.79v5.79s12,5.55,30.17,23.69c0,0,26.21,29.24,47.38,27.22,0,0,22.18-2.52,25.71-14.11,0,0,5-10.08-4-28.23,0,0-41.84-24.45-65-63.89L231.5,420.31A381.47,381.47,0,0,0,224,466s5,3,1.25,19.63C225.26,485.59,222.91,503.42,224,509.79Z"/><path class="cls-4" d="M225.12,509.69a32.82,32.82,0,0,1-.86,5.89l-.14-.22h0a81.49,81.49,0,0,1,13.48,8.17,153.58,153.58,0,0,1,12.28,9.9c2,1.74,3.91,3.55,5.8,5.41s3.68,3.63,5.58,5.37a124,124,0,0,0,12,9.71,72.48,72.48,0,0,0,13.22,7.62c4.6,2,9.53,3.3,14.27,3l.44,0,.19,0,.22,0,.93-.14c.62-.1,1.24-.2,1.86-.33,1.24-.24,2.48-.52,3.7-.83a50.05,50.05,0,0,0,7.12-2.4,26.36,26.36,0,0,0,6.28-3.61,12.05,12.05,0,0,0,4-5.3l.06-.19.05-.1a6.12,6.12,0,0,0,.27-.62c.09-.24.17-.51.25-.76.15-.53.3-1.06.41-1.61a25.23,25.23,0,0,0,.48-3.38,36.62,36.62,0,0,0-.27-7l-.25-1.75-.36-1.76c-.19-1.18-.56-2.32-.84-3.49l-1.05-3.47L323,524.27h0l.1.11A214.81,214.81,0,0,1,295,503.53a196.93,196.93,0,0,1-24.38-25.13L267.86,475c-.9-1.15-1.72-2.37-2.58-3.55l-2.55-3.57c-.81-1.21-1.56-2.46-2.35-3.69L258,460.46l-2.43-3.63-4.86-7.28-19.46-29.1.45-.08c-1.74,7.5-3.16,15.09-4.41,22.69s-2.27,15.26-3.07,22.92h0l-.12-.24a5.39,5.39,0,0,1,1.78,2.06,11.51,11.51,0,0,1,1,2.49,22.69,22.69,0,0,1,.75,5.23,43.65,43.65,0,0,1-.22,5.24c-.15,1.73-.47,3.44-.76,5.15l0-.13-.51,6-.44,6-.5,6c-.09,1-.13,2-.18,3l0,1.46C225.05,508.67,225.1,509.19,225.12,509.69Zm-2.21.19c-.1-.5-.21-1-.29-1.5l-.19-1.57c-.11-1-.17-2.08-.2-3.11a52.7,52.7,0,0,1,.09-6.16c.14-2,.37-4.06.63-6.08s.53-4,.87-6.06l0-.11v0l.6-2.43c.2-.81.33-1.63.52-2.44.33-1.63.53-3.28.71-4.92a26.94,26.94,0,0,0-.06-4.92,10.72,10.72,0,0,0-.54-2.37,5.31,5.31,0,0,0-1.19-2l-.13-.12v-.12h0q1.2-11.52,3.07-22.95c1.25-7.61,2.68-15.2,4.42-22.73l.13-.56.32.48,19.47,29.11,4.87,7.28,2.43,3.64,2.33,3.7c.78,1.22,1.54,2.47,2.35,3.68l2.54,3.56c.86,1.17,1.67,2.39,2.57,3.53l2.72,3.42a196.48,196.48,0,0,0,24.31,25.06,216.21,216.21,0,0,0,28.07,20.79l.07,0,0,.06h0c.62,1.06,1.26,2.12,1.87,3.2s1.11,2.21,1.61,3.35a42.1,42.1,0,0,1,2.38,7.11,31.84,31.84,0,0,1,.95,7.57,27.09,27.09,0,0,1-.26,3.9,20,20,0,0,1-.39,2c-.1.33-.17.65-.29,1a8.85,8.85,0,0,1-.4,1.08l.11-.29a15.07,15.07,0,0,1-5,7.3,30,30,0,0,1-7.19,4.3,51.25,51.25,0,0,1-7.74,2.57c-1.31.34-2.63.62-3.95.87-.66.13-1.33.24-2,.34l-1,.15-.26,0-.29,0-.54,0A34,34,0,0,1,285,565.07a76,76,0,0,1-13.76-8.26,124.19,124.19,0,0,1-12.05-10.35c-1.91-1.84-3.74-3.73-5.51-5.71s-3.56-3.71-5.43-5.52c-7.44-7.23-15.33-14.16-24.3-19.42h0l-.09,0-.06-.21A31.55,31.55,0,0,1,222.91,509.88Z"/></g><g id="shirt"><path class="cls-10" d="M262.75,534.23H236s-.5-25.2-4-39.31-18.15-50.32,0-81.62,56.46-28.78,56.46-28.78,29.23-1.51,40.32,7.06c0,0,21.68,18.65,91.24,38.31,0,0,21.17,3.93,20.67,29.44,0,0,9.57,7.86,16.13,30l3,4.54h3.53l3.53,42.34H454.3s-27.22-41.84-40.83-52.42c0,0-39.32-2.52-48.9,52.42l.51,5.67h-4.54l1,4.41s-25.21,9.58-50.41-9.58c0,0-3.78,3.53-5.8,5.17S299,554.4,289,564c0,0-1.76,2,2,3l6,2.77s6,1,6.8,1.26,3.28,2.77,4.79,3,10.08,1.27,10.08,1.27l7.81,2,1.52,1.51s-11.09-1.76-12.86,19.41l.76,2.27-3.78,1-9.33-3.28s-6.8.25-8.32,0-15.87-2.52-15.87-2.52l-9.33-1L253.67,592s-18.65-12.1-3-35.29l1.26-5.79,7.31-9Z"/><path class="cls-4" d="M262.54,534.37c-2.65.29-5,.54-7.32.74s-4.45.38-6.56.46a51.85,51.85,0,0,1-6.24-.1,38.18,38.18,0,0,1-6.39-1l-.29-.07,0-.17h0c-.19-4-.47-7.91-.8-11.86s-.69-7.88-1.18-11.8-1.08-7.83-1.89-11.67-2-7.56-3.13-11.37A177.22,177.22,0,0,1,223,464.3a94,94,0,0,1-1.14-24.06,68.9,68.9,0,0,1,6.31-23.41A56.23,56.23,0,0,1,243,397.51a61.75,61.75,0,0,1,21.47-11.46,76.82,76.82,0,0,1,11.88-2.62,67.82,67.82,0,0,1,12.22-.67h-.21a136.38,136.38,0,0,1,17.86.48A67,67,0,0,1,323.87,387a26,26,0,0,1,4.2,2.08,18.77,18.77,0,0,1,2,1.39c.54.43,1.1.85,1.68,1.27,2.33,1.67,4.77,3.23,7.27,4.71,5,3,10.18,5.64,15.42,8.21,10.54,5.06,21.41,9.45,32.41,13.47l8.29,2.91c2.77,1,5.57,1.84,8.35,2.76l4.18,1.37,4.2,1.3,8.41,2.6-.08,0a27.11,27.11,0,0,1,9.12,4.2,25.74,25.74,0,0,1,6.95,7.12l.36.51.3.55.59,1.1.6,1.09c.18.38.31.77.47,1.16.3.77.62,1.54.89,2.32l.6,2.4c.1.4.21.8.3,1.2l.16,1.23.31,2.45c.11,1.64.07,3.28.12,4.92h0l-.09-.2a16.87,16.87,0,0,1,3.58,2.67,31,31,0,0,1,3,3.27,41.68,41.68,0,0,1,4.62,7.5,52.37,52.37,0,0,1,3.21,8.16c.24.69.39,1.4.58,2.11s.36,1.41.51,2.12c.28,1.43.53,2.87.69,4.32v0l0-.07q.86,1.06,1.62,2.19a14.78,14.78,0,0,1,1.39,2.33v0l-.21-.12a4.63,4.63,0,0,1,1.76-.21,8,8,0,0,1,1.75.21h0l.17-.07.08.3a88.54,88.54,0,0,1,2.05,10.48c.51,3.51.86,7,1.13,10.56.13,1.77.25,3.53.33,5.3s.16,3.54.19,5.31c.08,3.55.08,7.1-.17,10.67v0l.09.21-.34.06a22.11,22.11,0,0,1-3.15.1l-3.15,0c-2.09,0-4.19,0-6.29-.08h-.15l-.07-.11c-6.1-9.27-12.43-18.4-19-27.31q-4.95-6.69-10.24-13.12l-2.69-3.16-2.79-3.08c-.94-1-1.95-2-2.92-3s-2.07-1.82-3.1-2.74h0l.14.06a48.83,48.83,0,0,0-18,6,50.2,50.2,0,0,0-7.62,5.36,54.53,54.53,0,0,0-6.48,6.68,69.38,69.38,0,0,0-9.64,16.11,128,128,0,0,0-6.27,18.2v-.23c0,1.9,0,3.81-.13,5.72h0v.27h-4.77l.24-.31,1,4.41,0,.23-.2.06a48.53,48.53,0,0,1-13.16,2.33,55.7,55.7,0,0,1-26-5.08,56.68,56.68,0,0,1-5.92-3.12,31.87,31.87,0,0,1-2.79-1.83L311,537h.31c-.93,1.16-1.91,2.29-2.91,3.4L306.89,542l-.77.81-.21.29c-.07.1-.16.26-.24.38-.65,1.14-1.34,2.49-2,3.79s-1.4,2.62-2.16,3.92a53,53,0,0,1-11.46,13.92l.1-.1c.06-.08,0,0,0,0s0,0-.05,0-.12-.14-.06,0a1.49,1.49,0,0,0,.46.41,5.84,5.84,0,0,0,.83.41l.19.07c1,.55,1.9,1.15,2.85,1.74s1.88,1.22,2.79,1.88h0l-.06,0c1.87.32,3.74.64,5.61,1a6.72,6.72,0,0,1,1.45.37,12.56,12.56,0,0,1,1.19.86,20.8,20.8,0,0,0,2.29,1.63,3.21,3.21,0,0,0,1.24.45l1.41.18,2.82.35,5.65.71h0l7.82,2,.06,0,.05,0,1.5,1.5v0l.4.4-.61,0a7.9,7.9,0,0,0-2.95.68,10.47,10.47,0,0,0-1.34.67c-.4.31-.84.55-1.21.9a13.33,13.33,0,0,0-2,2.22l-.85,1.26-.7,1.36a10.45,10.45,0,0,0-.63,1.41c-.19.48-.4,1-.58,1.45-.29,1-.66,2-.91,3s-.53,2-.73,3.08-.39,2.09-.65,3.13v-.08l.76,2.27.08.25-.26.07-3.78,1-.07,0-.08,0-9.31-3.27h.08c-2.06.36-4.12.63-6.22.79-.53,0-1.05.08-1.62.09a8.33,8.33,0,0,1-.88,0l-.77-.07-3.09-.27c-4.11-.41-8.19-.94-12.28-1.47-2.07-.18-4.13-.4-6.19-.62-1-.13-2.06-.22-3.08-.41s-2-.43-3.05-.66c-2-.47-4-1-6-1.59a59,59,0,0,1-6-2h0l-.09,0a17.68,17.68,0,0,1-7.92-6.7,19.71,19.71,0,0,1-3.2-10.21,24.36,24.36,0,0,1,.5-5.34,26.15,26.15,0,0,1,1.68-5,28.21,28.21,0,0,1,5.83-8.38v0l0,.09a17.82,17.82,0,0,1,.41-2.93,19.34,19.34,0,0,1,.84-2.85v0l.05-.08a40.45,40.45,0,0,1,3.27-4.79c1.19-1.51,2.43-3,3.68-4.45l-.1.15c.57-1.18,1.19-2.32,1.86-3.5S261.82,535.7,262.54,534.37Zm.42-.27L261.54,538c-.51,1.37-1.07,2.8-1.67,4.18l0,.07-.07.08c-1.18,1.52-2.38,3-3.63,4.5a41.67,41.67,0,0,1-4,4.16l.06-.11v0a18.09,18.09,0,0,1-.41,2.94,19.22,19.22,0,0,1-.84,2.84l0,.08h0v0a72.89,72.89,0,0,0-3.3,9.17l-.3,1.14-.24,1.15c-.19.75-.25,1.52-.39,2.27a28.88,28.88,0,0,0-.18,4.54,24.26,24.26,0,0,0,2.19,8.67,35,35,0,0,0,5.18,8l-.09,0h0a59.36,59.36,0,0,1,6.27.13c2.07.12,4.12.33,6.16.58,1,.13,2,.26,3.06.42s2.06.19,3.09.31c2.05.22,4.1.45,6.15.71,4.09.69,8.17,1.51,12.23,2.38l3,.7.75.18c.3.06.4.09.67.13.46.08,1,.13,1.48.19,2,.19,4.11.35,6.18.57h.11l9.31,3.27h-.15l3.78-1-.17.32-.76-2.27v-.12c0-1.08.07-2.16.1-3.24s.27-2.16.42-3.24.51-2.13.77-3.19c.14-.53.38-1,.56-1.56a12.83,12.83,0,0,1,.66-1.53,13.57,13.57,0,0,1,4.2-5.23,8.39,8.39,0,0,1,6.44-1.62l-.22.42h0l-1.5-1.5.11.06-7.81-2h0l-5.66-.7-2.83-.36-1.41-.17a3.63,3.63,0,0,1-1.41-.52,21.13,21.13,0,0,1-2.35-1.67,11.23,11.23,0,0,0-1.12-.81,8,8,0,0,0-1.3-.32c-1.86-.36-3.74-.68-5.61-1l-.06,0h0c-1.1-.25-2.18-.56-3.25-.88s-2.14-.65-3.18-1l.19.07a9.61,9.61,0,0,1-1.3-.34A4.08,4.08,0,0,1,288,567a2.81,2.81,0,0,1-.91-2,3,3,0,0,1,.19-1.1,3.31,3.31,0,0,1,.53-.93l.1-.11a117.48,117.48,0,0,0,10.62-13.54l2.45-3.62a41.17,41.17,0,0,1,2.67-3.71c.15-.16.27-.31.44-.48s.39-.36.57-.5l.87-.65,1.79-1.28c1.2-.85,2.42-1.67,3.69-2.47l.18-.11.14.09h0l2.73,1.89a29.24,29.24,0,0,0,2.77,1.81,54.73,54.73,0,0,0,5.87,3.09,55.09,55.09,0,0,0,25.78,5,48.16,48.16,0,0,0,13-2.29l-.16.29-1-4.41-.06-.31h4.85l-.25.27h0c-.42-1.86-.78-3.73-1.14-5.6v-.23a76.24,76.24,0,0,1,4.1-19.46A57.51,57.51,0,0,1,377.65,499a44,44,0,0,1,16.13-12.34,40.58,40.58,0,0,1,9.7-2.91,31.67,31.67,0,0,1,10-.19h.1l0,0h0c1,.92,2.14,1.79,3.14,2.77s2,1.95,2.93,3l2.81,3.09,2.69,3.17q5.32,6.44,10.26,13.14,9.92,13.4,19.05,27.33l-.21-.11h0c2.1,0,4.2-.07,6.29-.08l3.15,0a20.73,20.73,0,0,1,3.15.1l-.25.27h0c-.85-3.49-1.43-7-1.94-10.5-.27-1.75-.49-3.51-.69-5.27s-.39-3.52-.55-5.28c-.32-3.53-.56-7.06-.64-10.6a88.77,88.77,0,0,1,.29-10.68l.25.23h0a8.06,8.06,0,0,1-1.75.22,4.64,4.64,0,0,1-1.76-.22l-.21-.08V494a14.84,14.84,0,0,1-1.62-2.18c-.49-.76-1-1.54-1.39-2.34l0-.06h0c-.7-1.29-1.31-2.59-1.91-3.89s-1.24-2.58-1.85-3.86c-1.26-2.55-2.45-5.1-3.78-7.58s-2.64-4.93-4-7.35-2.85-4.84-4.45-7.23l-.11-.16,0,0h0c-.1-1.62-.13-3.24-.29-4.84l-.4-2.39-.19-1.19c-.1-.39-.22-.78-.33-1.16l-.67-2.31c-.29-.75-.63-1.48-.93-2.22-.16-.36-.3-.74-.48-1.1l-.6-1-.6-1-.3-.51-.36-.48a24.55,24.55,0,0,0-6.79-6.61,25.87,25.87,0,0,0-8.63-3.72h-.08c-11.35-3.09-22.63-6.44-33.77-10.28s-22.14-8.1-32.87-13c-5.35-2.51-10.65-5.15-15.78-8.15-2.57-1.49-5.09-3.07-7.56-4.81-.61-.43-1.23-.88-1.83-1.36-.31-.27-.55-.4-.82-.6s-.53-.36-.82-.53a22.57,22.57,0,0,0-3.7-1.79,64.27,64.27,0,0,0-16.74-3.42,135.9,135.9,0,0,0-17.35-.42h-.21a64.74,64.74,0,0,0-11.49.68,72.88,72.88,0,0,0-11.32,2.52,59.33,59.33,0,0,0-20.25,10.75,50.25,50.25,0,0,0-8,8.27,58.85,58.85,0,0,0-6,9.82,65.51,65.51,0,0,0-6.24,22.22,94.13,94.13,0,0,0,.65,23.34,175.5,175.5,0,0,0,5.18,23l1.58,5.75c.51,1.93.93,3.91,1.27,5.88.69,3.95,1.14,7.91,1.5,11.87.7,7.93,1,15.86,1,23.81h0L236,534a40.08,40.08,0,0,1,7-1,67.81,67.81,0,0,1,7.12-.1c2.34.07,4.64.23,6.8.45S261.15,533.8,263,534.1Z"/><path class="cls-4" d="M361.92,537.76s-3.4-4.16-14.74-4.54c0,0,22.31-45,51.79-55.19,0,0-9.83.38-32.13,20.79,0,0-6.43-8.69-15.5-14,0,0,7.18,4.92,11.72,16.26l.19,1.89-4,6.43s-8-9.27-14.28-14.18c0,0,2.37,18.15-2.17,29.11,0,0-2.27,2.84-6.42,0a138.39,138.39,0,0,0-27.6-23.25l-4.54,1.7s14.93,7.56,20,20.79c0,0,.19,7.57-6.43,6.81-.94,0-10-4.16-10-4.16l-5.67-.19s7.37.57,10.21,5.86c0,0,1.45,4.22-1.26,4.85a57.14,57.14,0,0,0,50.41,9.58l-1-4.41Z"/><path class="cls-4" d="M269.3,515.08S280.39,495.92,292,480.8c0,0-19.4-39.06-14.87-75.61,0,0-7.81,21.68,5.55,69.56,0,0,4.79,9.58-.76,13.36,0,0-5.79,3.53-9.83-12.6A172.33,172.33,0,0,0,260.23,440s6.55,17.64,8.06,32.26c0,0-8-23.7-26.46-27,0,0,9.58,4.79,10.33,14.87,0,0-8.31-2.77-16.38,0,0,0,12.6-1.76,23.19,10.09,0,0-7.06,1.76-8.07,9.07,0,0,3.78-6.3,9.83-3.78C260.73,475.51,264.76,475.76,269.3,515.08Z"/><path class="cls-4" d="M280.89,430.39A51,51,0,0,1,281,419.7a57.28,57.28,0,0,1,2.13-10.51c.47-1.73,1.16-3.39,1.77-5.08s1.4-3.3,2.3-4.86a32.68,32.68,0,0,1,6.29-8.68c-1.84,3.09-3.9,5.94-5.53,9.09-.9,1.52-1.55,3.17-2.3,4.77s-1.32,3.28-1.8,5a62,62,0,0,0-2.37,10.34A59.05,59.05,0,0,0,280.89,430.39Z"/><path class="cls-4" d="M287.13,448.54a91.2,91.2,0,0,1-.72-12.91,97.86,97.86,0,0,1,1.07-12.9,76.65,76.65,0,0,1,3.1-12.59,38.68,38.68,0,0,1,5.94-11.5c-.43,1-.9,2-1.38,2.92-.24.48-.51.95-.73,1.44l-.65,1.46c-.42,1-.94,1.93-1.32,2.93l-1.14,3a74.72,74.72,0,0,0-3.16,12.45,99.84,99.84,0,0,0-1.3,12.8A97.46,97.46,0,0,0,287.13,448.54Z"/><path class="cls-4" d="M290,442.49c.65-3.7,1.47-7.38,2.47-11s2.14-7.22,3.47-10.75a111.91,111.91,0,0,1,4.52-10.36,46.21,46.21,0,0,1,6.17-9.46c-1.86,3.28-3.75,6.48-5.48,9.81A106.81,106.81,0,0,0,296.55,421c-1.34,3.5-2.6,7-3.68,10.63S290.76,438.82,290,442.49Z"/><path class="cls-4" d="M291.55,458.37a108.35,108.35,0,0,1,2.48-13.6,131.06,131.06,0,0,1,3.9-13.28c.73-2.19,1.61-4.33,2.43-6.49s1.73-4.29,2.77-6.35a72.55,72.55,0,0,1,7-11.95c-1.95,4.2-4.07,8.25-5.93,12.45-1,2.06-1.86,4.18-2.78,6.28s-1.73,4.25-2.48,6.42c-1.55,4.31-3,8.67-4.22,13.1S292.38,453.84,291.55,458.37Z"/><path class="cls-4" d="M373.9,481.05a23.51,23.51,0,0,1,4.5-6,27.09,27.09,0,0,1,6.06-4.46,26.62,26.62,0,0,1,7.06-2.59,27.44,27.44,0,0,1,3.71-.55,16.79,16.79,0,0,1,1.88-.06H399a39.65,39.65,0,0,0-7.31,1.17,28.2,28.2,0,0,0-6.84,2.68,28.87,28.87,0,0,0-6,4.22A29.75,29.75,0,0,0,373.9,481.05Z"/><path class="cls-4" d="M330.55,481.05a54.09,54.09,0,0,1,8.06,30.25s8.57-18.91-2.77-46.63a73.1,73.1,0,0,1,4.54,25.46S340.38,489.62,330.55,481.05Z"/><path class="cls-4" d="M255.69,554s14.37-7.19,36.29-7.56c0,0-13.61-.76-20.41-13.61,0,0,2.74,11.49,6.8,12.85C278.37,545.7,268.92,546.83,255.69,554Z"/><path class="cls-4" d="M442.83,498.44s10.46.76,15.5-1.89C458.33,496.55,452.85,501.66,442.83,498.44Z"/><path class="cls-4" d="M405.4,474.25S414.47,478,419,483.7c0,0,15.12,2.65,26.47-9.45,0,0-12.67,6.43-20,2.27a26.12,26.12,0,0,0,13.61-11.85s-8.7,2.77-11.34,2.77c0,0,4.16-7.18-2.27-16.63,0,0,1.51,5.8-2.27,13.86h-4.91L405.4,447.41S427,483.7,405.4,474.25Z"/><path class="cls-4" d="M397.63,475.41s-10.84.6-27,17.44C370.66,492.85,381.52,472.07,397.63,475.41Z"/><polygon class="cls-4" points="409.02 484.47 416.25 486.82 416.15 486.14 413.54 483.88 409.02 484.47"/></g><g id="Layer_7" data-name="Layer 7"><path class="cls-11" d="M328,578.84s52,6.3,58.41,20.67c0,0,.64,3-2.29,3.28,0,0,7.89,6.55,6.13,9.57s-6,7.57-21.93,8.83c0,0-2.52-.26-6.55-4.29L353,608.84s6,8.31,5.29,9.83c0,0-1.26,5.79-7.69.75,0,0-10.71-12.6-18.77-16.63,0,0-5.8-3-15.88-2.27C315.93,600.52,312.9,582.88,328,578.84Z"/><path class="cls-4" d="M328,578.59c2.74.18,5.31.46,8,.78s5.26.66,7.88,1.09q7.88,1.24,15.63,3.17a101.13,101.13,0,0,1,15.25,5,45.88,45.88,0,0,1,7.22,3.89,13.85,13.85,0,0,1,5.47,6.54l.06.18v0a4.46,4.46,0,0,1-.11,1.48,3.19,3.19,0,0,1-.66,1.36,2.39,2.39,0,0,1-1.24.83,3,3,0,0,1-1.31.08l.14-.45h0a26.45,26.45,0,0,1,3.67,2.84,14.76,14.76,0,0,1,3.06,3.75,4.42,4.42,0,0,1,.57,2.9,3.12,3.12,0,0,1-.31.87l-.32.54a11.94,11.94,0,0,1-.71,1,13.52,13.52,0,0,1-3.72,3.29,28.69,28.69,0,0,1-8.91,3.29,65.39,65.39,0,0,1-9.2,1.17h-.2a5.31,5.31,0,0,1-.82-.21c-.23-.08-.45-.17-.67-.27a12.66,12.66,0,0,1-1.21-.64,18.4,18.4,0,0,1-2.14-1.53c-1.34-1.13-2.43-2.39-3.63-3.52-2.34-2.34-4.68-4.68-7-7.09h0l.37-.33q1.76,2.23,3.32,4.62c.52.79,1,1.6,1.49,2.45a10.26,10.26,0,0,1,.63,1.34,4.22,4.22,0,0,1,.23.76,1.68,1.68,0,0,1-.06,1.07l0-.14a4.78,4.78,0,0,1-1.33,2.4,3.6,3.6,0,0,1-2.68.94,6.67,6.67,0,0,1-1.36-.24c-.4-.17-.83-.31-1.21-.51s-.76-.4-1.11-.64l-1-.73,0,0-.06-.08c-2.25-2.56-4.64-5-7.1-7.42a78.85,78.85,0,0,0-7.75-6.67,25.63,25.63,0,0,0-4.25-2.62,25.08,25.08,0,0,0-4.8-1.52,42.38,42.38,0,0,0-5-.76c-1.7-.14-3.42-.16-5.13-.14h-.25l0-.21a26.94,26.94,0,0,1-.05-6.89,20.82,20.82,0,0,1,1.86-6.64,15.21,15.21,0,0,1,4.28-5.4,15.38,15.38,0,0,1,2.94-1.83A19.62,19.62,0,0,1,328,578.59Zm0,.5a16.93,16.93,0,0,0-6,2.93,14.67,14.67,0,0,0-4.14,5.23,20.54,20.54,0,0,0-1.82,6.48,26.75,26.75,0,0,0,.05,6.75l-.26-.21h0a35.84,35.84,0,0,1,10.44.19,20.15,20.15,0,0,1,9.73,4.06,63.22,63.22,0,0,1,8,6.8c2.48,2.44,4.84,5,7.11,7.62l-.11-.1a20.67,20.67,0,0,0,1.88,1.27c.33.19.66.3,1,.46a4.7,4.7,0,0,0,1,.21,2.21,2.21,0,0,0,1.75-.53,3.55,3.55,0,0,0,1-1.71l.05-.16v0a1,1,0,0,0,0-.32,3.84,3.84,0,0,0-.16-.6,13.08,13.08,0,0,0-.52-1.24c-.39-.84-.84-1.66-1.3-2.47-.94-1.62-1.95-3.21-3-4.79l-.86-1.3,1.23,1h0c2.62,2.05,5.16,4.18,7.71,6.31,1.29,1.06,2.48,2.22,3.75,3.14a14.7,14.7,0,0,0,2,1.25,8.36,8.36,0,0,0,1,.47c.17.07.34.12.5.17a2.53,2.53,0,0,0,.38.09h-.2a71.57,71.57,0,0,0,8.83-1.42,37.35,37.35,0,0,0,4.23-1.22,25.39,25.39,0,0,0,3.87-1.82,12.58,12.58,0,0,0,3.16-2.62,9.5,9.5,0,0,0,.62-.8l.29-.43a.84.84,0,0,0,.09-.19,2.52,2.52,0,0,0-.22-1.5,17,17,0,0,0-2.25-3.63c-.9-1.18-1.89-2.33-2.89-3.47h0l-.44-.2.58-.24a3.21,3.21,0,0,0,.9-.51,1.43,1.43,0,0,0,.45-.69,2.1,2.1,0,0,0,.08-.8,2.64,2.64,0,0,0-.16-.8l.06.21a19.22,19.22,0,0,0-5.22-4.92,42.83,42.83,0,0,0-6.7-3.67,113.81,113.81,0,0,0-14.74-5.19c-5-1.48-10.15-2.72-15.29-3.88-2.57-.57-5.14-1.16-7.73-1.68Z"/><path class="cls-11" d="M466.9,536.25s.75,11.51,5.8,12.31c0,0,30.24,1.3,37.55,14.91,0,0,2.27,2,1.26,4.54,0,0-.51,1-5.8,1.51,0,0-3.53-.76-4.79-1.77,0,0,2.78,3,1,3.28a15.34,15.34,0,0,1-12.6-1.76,28.08,28.08,0,0,0-10.59-5.55l-8.06-.5,4,4.79s1.77,5-6,3.66c0,0-7.17-.71-14.67-9.37V535.78Z"/><path class="cls-12" d="M467.07,536.07a.3.3,0,0,1,.08.16v.22l0,.22.06.45.12.88c.09.59.2,1.18.32,1.76a26.7,26.7,0,0,0,.93,3.43,12.52,12.52,0,0,0,1.56,3.1,4.09,4.09,0,0,0,2.59,1.8h0a93.72,93.72,0,0,1,10.45,1.11,79.07,79.07,0,0,1,10.28,2.31,45.45,45.45,0,0,1,9.78,4.1,19,19,0,0,1,4.27,3.26,30.83,30.83,0,0,1,3.3,4.3h0l-.13-.17a4.25,4.25,0,0,1,1.1,1,4.88,4.88,0,0,1,.76,1.29,4.12,4.12,0,0,1,.27,1.57,4.41,4.41,0,0,1-.33,1.57l0,.05,0,0a1.07,1.07,0,0,1-.24.32l-.15.13a1.75,1.75,0,0,1-.26.18,2.74,2.74,0,0,1-.45.23,4.93,4.93,0,0,1-.84.29,10.18,10.18,0,0,1-1.61.26,12.62,12.62,0,0,1-3.13-.11h-.09c-.85-.19-1.67-.41-2.49-.68a8.81,8.81,0,0,1-2.39-1.12h0l.34-.37a8.85,8.85,0,0,1,1.54,1.52,2.9,2.9,0,0,1,.56,1.17,1.33,1.33,0,0,1-.25,1.06,1.74,1.74,0,0,1-.47.36,3.26,3.26,0,0,1-.44.15l.15,0a13.52,13.52,0,0,1-3.41.89,15.26,15.26,0,0,1-3.51,0,13.36,13.36,0,0,1-3.45-.83,15.72,15.72,0,0,1-3.16-1.62l-.05,0-.09-.07c-.67-.58-1.47-1.19-2.25-1.74a27.17,27.17,0,0,0-2.45-1.54,26.12,26.12,0,0,0-2.58-1.32,28.51,28.51,0,0,0-2.71-1l.15,0c-2.67-.3-5.35-.65-8-1.09h0l.21-.41,4,4.77h0l0,0,0,.06a3.39,3.39,0,0,1,.26,2.48,3.06,3.06,0,0,1-1.88,2,9.51,9.51,0,0,1-4.85.3l.08,0A15.64,15.64,0,0,1,464,571.3a24.53,24.53,0,0,1-4-2.32,28.8,28.8,0,0,1-3.42-3c-.54-.53-1-1.13-1.5-1.69s-.9-1.2-1.33-1.81v0l-.06-.07V535.52H454Zm-.35.36L454,536l.26-.25V562.3l-.06-.16h0l1.67,1.44c.57.46,1.11.94,1.69,1.38a40.25,40.25,0,0,0,3.54,2.48,30.79,30.79,0,0,0,3.77,2,19.36,19.36,0,0,0,2,.73,12.24,12.24,0,0,0,1.93.5h.08a18.71,18.71,0,0,0,2.05.29,6.36,6.36,0,0,0,1.92-.09,2,2,0,0,0,1.34-.89,3.23,3.23,0,0,0,.32-1.89l0,.08h0l-4-4.78-.36-.42h.58c2.7-.11,5.39-.12,8.09-.09h0l.12,0a24.15,24.15,0,0,1,5.9,2.05,30,30,0,0,1,2.71,1.54,22,22,0,0,1,2.57,1.87l-.13-.1a13.61,13.61,0,0,0,2.68,1.32,14.47,14.47,0,0,0,2.91.75,17.07,17.07,0,0,0,3,.21,17.68,17.68,0,0,0,3-.29l.1,0,.06,0,.05,0s-.06,0-.05.07,0,.18,0,.1a1.57,1.57,0,0,0-.16-.73,13.31,13.31,0,0,0-.9-1.76l-.87-1.48,1.21,1.12h0a8.44,8.44,0,0,0,2.23,1,23.19,23.19,0,0,0,2.44.67h-.06c1-.37,1.94-.66,2.87-1,.45-.17.91-.3,1.32-.49a6.18,6.18,0,0,0,.57-.27,1.51,1.51,0,0,0,.21-.14l.05,0h0s0,0-.12.17l0,.08a3.28,3.28,0,0,0,.09-1.76,5.37,5.37,0,0,0-.33-1c-.13-.33-.33-.67-.48-1l-.14-.17h0a10.71,10.71,0,0,0-3.14-3.87,38,38,0,0,0-4.11-3,44.06,44.06,0,0,0-9.39-4.13A78.24,78.24,0,0,0,483,550.33a94.42,94.42,0,0,0-10.3-1.3h-.06a4.91,4.91,0,0,1-3.14-2.24,13,13,0,0,1-1.56-3.37,25.64,25.64,0,0,1-.84-3.54c-.11-.6-.19-1.2-.26-1.8l-.1-.91,0-.45,0-.22v-.18h0A.21.21,0,0,0,466.72,536.43Z"/></g><g id="head"><path class="cls-6" d="M373.9,508.7s-3.28,19,31.5,51.74c0,0,11.09,9.08,29.74,14.12V570s39.82-5,26.21-42.84c0,0-15.65-33.42-53.94-42.93C407.41,484.25,386.75,486.7,373.9,508.7Z"/><path class="cls-4" d="M374.13,508.79c0,.2,0,.6,0,.89l0,.95c.08.63.11,1.27.24,1.89a36,36,0,0,0,.81,3.74,47.92,47.92,0,0,0,2.74,7.15l.8,1.74c.27.58.6,1.13.9,1.7.62,1.11,1.17,2.27,1.88,3.34l2,3.25,2.22,3.15c.71,1.06,1.51,2.06,2.31,3.07l2.36,3c1.68,1.94,3.32,3.91,5,5.81s3.49,3.77,5.3,5.6l5.52,5.39-.07-.06a65.72,65.72,0,0,0,6.69,4.51c2.32,1.42,4.72,2.71,7.15,3.95s4.92,2.39,7.45,3.42,5.1,2,7.69,3h0l-.32.24V570h0v-.19l.22-.06c1.19-.29,2.37-.63,3.54-1s2.31-.81,3.45-1.23a51.11,51.11,0,0,0,6.57-3.08,30.45,30.45,0,0,0,10.58-9.37,24.07,24.07,0,0,0,3.83-13.44,42.37,42.37,0,0,0-2.71-14.13l0,.09a67.23,67.23,0,0,0-4.42-7.5c-.82-1.21-1.67-2.4-2.52-3.59s-1.77-2.33-2.69-3.46a85.64,85.64,0,0,0-12.39-12.43l-1.69-1.4c-.57-.47-1.18-.87-1.77-1.3-1.2-.85-2.37-1.73-3.59-2.55a82.18,82.18,0,0,0-7.59-4.44,86.14,86.14,0,0,0-16.4-6.45h.09a40.28,40.28,0,0,0-10.12,3.15,47.57,47.57,0,0,0-9.16,5.37A53.48,53.48,0,0,0,377,504.37C376,505.8,375.11,507.32,374.13,508.79Zm-.47-.18c1-1.5,1.9-3.08,3-4.53s2.12-2.89,3.36-4.19a49.81,49.81,0,0,1,7.88-7.27,48.31,48.31,0,0,1,9.26-5.43A40.2,40.2,0,0,1,407.38,484h.09A82.31,82.31,0,0,1,424.25,490a85.07,85.07,0,0,1,7.84,4.28c1.26.8,2.47,1.68,3.7,2.52.61.43,1.24.83,1.83,1.29l1.75,1.39a87.31,87.31,0,0,1,12.85,12.43,78.57,78.57,0,0,1,10.08,14.87v0l0,.06a44.76,44.76,0,0,1,2.92,14.84,26.34,26.34,0,0,1-4.1,14.68,29.15,29.15,0,0,1-11.52,9.94,38.94,38.94,0,0,1-14.46,4l.22-.25h0v4.85l-.31-.07h0a73.39,73.39,0,0,1-8.08-2,79,79,0,0,1-15.34-6.66,62.1,62.1,0,0,1-7.08-4.66l0,0,0,0-5.56-5.5c-1.81-1.87-3.56-3.81-5.32-5.73s-3.35-4-5-6L386.26,541c-.78-1-1.55-2.1-2.24-3.21l-2.14-3.29-1.95-3.41c-.68-1.12-1.21-2.33-1.8-3.49a36,36,0,0,1-1.6-3.59,49.43,49.43,0,0,1-2.36-7.5,37.09,37.09,0,0,1-.59-3.9A16.4,16.4,0,0,1,373.66,508.61Z"/><path class="cls-4" d="M414.77,506.15a54.14,54.14,0,0,1,8.73,4.25,65.23,65.23,0,0,1,7.94,5.59,55.75,55.75,0,0,1,7,6.77,49,49,0,0,1,5.59,7.92l-.07.05-1.39-2-.7-1-.75-.94-1.5-1.88L438,523.15l-.81-.89-.85-.84c-.58-.57-1.13-1.15-1.71-1.69-1.2-1.08-2.38-2.16-3.64-3.15a75.65,75.65,0,0,0-7.82-5.6l-2.06-1.25c-.7-.4-1.39-.81-2.1-1.18-1.4-.79-2.84-1.51-4.3-2.18Z"/><path class="cls-4" d="M421.53,530.7q1.44-1.63,2.78-3.36t2.53-3.54c.79-1.21,1.54-2.45,2.22-3.72a29.47,29.47,0,0,0,1.77-3.9h0l.1-.28.3,0a16.17,16.17,0,0,0,2.62-.65,26.9,26.9,0,0,0,2.56-1,27.35,27.35,0,0,0,2.45-1.31c.8-.48,1.57-1,2.33-1.55-.71.61-1.43,1.21-2.19,1.76s-1.55,1.06-2.35,1.55-1.66.9-2.53,1.29a16.67,16.67,0,0,1-2.74.94l.4-.33h0a30.53,30.53,0,0,1-2.07,3.93c-.76,1.25-1.59,2.46-2.46,3.64s-1.79,2.31-2.75,3.41S422.55,529.66,421.53,530.7Z"/><path class="cls-4" d="M426.5,535.18c.95-1.1,1.89-2.21,2.77-3.36s1.74-2.34,2.54-3.54,1.54-2.46,2.22-3.73a29.35,29.35,0,0,0,1.77-3.89h0l.09-.29.3,0a15,15,0,0,0,2.62-.66,24.59,24.59,0,0,0,2.57-1c.83-.41,1.66-.83,2.45-1.32s1.57-1,2.33-1.55c-.71.61-1.43,1.21-2.19,1.76s-1.55,1.06-2.36,1.55a25,25,0,0,1-2.53,1.29,16.57,16.57,0,0,1-2.73,1l.39-.33h0a29.84,29.84,0,0,1-2.06,3.93c-.77,1.26-1.6,2.47-2.46,3.64s-1.79,2.31-2.75,3.41S427.51,534.14,426.5,535.18Z"/><path class="cls-4" d="M416.67,526.87c.95-1.1,1.89-2.21,2.78-3.37s1.73-2.33,2.53-3.53,1.54-2.46,2.22-3.73a29.35,29.35,0,0,0,1.77-3.89h0l.09-.28.3,0a16,16,0,0,0,2.62-.66,23.75,23.75,0,0,0,2.57-1c.83-.41,1.66-.83,2.45-1.32s1.57-1,2.33-1.55c-.71.61-1.43,1.21-2.19,1.76s-1.55,1.06-2.36,1.55a24,24,0,0,1-2.53,1.29,15.67,15.67,0,0,1-2.73.94l.39-.32h0a29.84,29.84,0,0,1-2.06,3.93c-.77,1.26-1.6,2.47-2.46,3.64s-1.79,2.31-2.75,3.41S417.68,525.83,416.67,526.87Z"/><path class="cls-4" d="M432.7,538.13c.79-.92,1.57-1.86,2.3-2.82s1.44-2,2.1-3,1.27-2.06,1.83-3.12a23.34,23.34,0,0,0,1.46-3.25h0l.09-.29.3,0a12.9,12.9,0,0,0,2.19-.53,21.56,21.56,0,0,0,2.14-.84,23.82,23.82,0,0,0,4-2.36,24.73,24.73,0,0,1-3.77,2.8,22.27,22.27,0,0,1-2.11,1.1,14.51,14.51,0,0,1-2.3.82l.39-.33h0a25.05,25.05,0,0,1-1.74,3.29c-.65,1-1.35,2-2.08,3s-1.51,1.93-2.32,2.84S433.55,537.26,432.7,538.13Z"/><path class="cls-4" d="M414.22,519.08a45.49,45.49,0,0,0,3.61-4.82c.53-.84,1-1.7,1.49-2.58A20.37,20.37,0,0,0,420.5,509h0l.09-.29.31,0a10.21,10.21,0,0,0,1.79-.41c.6-.19,1.19-.42,1.78-.67a20.78,20.78,0,0,0,3.33-1.91,20.54,20.54,0,0,1-3.1,2.35A18.09,18.09,0,0,1,423,509a10.77,10.77,0,0,1-1.91.7l.4-.33h0a20.91,20.91,0,0,1-1.48,2.73c-.54.86-1.12,1.69-1.73,2.5A44.4,44.4,0,0,1,414.22,519.08Z"/></g><g id="ear"><path class="cls-11" d="M417.69,485.78C435.08,486,433.53,496,433.53,496a71.09,71.09,0,0,0-15.84-8.44C414.69,486.29,417.69,485.78,417.69,485.78Z"/><path class="cls-4" d="M416.41,485.78l1.27-.13a21.73,21.73,0,0,1,2.68,0c.89,0,1.77.19,2.67.28s1.75.36,2.64.53l1.28.42a8.17,8.17,0,0,1,1.27.5,10.34,10.34,0,0,1,4.29,3.39,8.72,8.72,0,0,1,1.2,2.52,4.5,4.5,0,0,1,.08,2.79l-.17.46-.24-.29h0a29.31,29.31,0,0,1-3.89-2.24c-1.26-.79-2.56-1.52-3.87-2.24s-2.64-1.38-4-2-2.72-1.24-4.09-1.74h0a7.57,7.57,0,0,1-.8-.41,1.5,1.5,0,0,1-.78-.89.82.82,0,0,1,.31-.76A1.55,1.55,0,0,1,416.41,485.78Zm2.14.22-.83.2a4.24,4.24,0,0,0-.67.21.84.84,0,0,0-.24.14c-.07.06,0,0,0,0a1.76,1.76,0,0,0,.38.29,6.33,6.33,0,0,0,.69.34l0,0a59.17,59.17,0,0,1,8.26,3.75c1.32.72,2.64,1.46,3.92,2.25a17.65,17.65,0,0,1,3.66,2.66h0l-.42.17c-.16-.82-.21-1.65-.43-2.45a7.89,7.89,0,0,0-1.05-2.26,9.53,9.53,0,0,0-3.92-3.14,6.18,6.18,0,0,0-1.18-.51l-1.22-.45c-.85-.19-1.68-.45-2.54-.59s-1.73-.29-2.6-.35C419.73,486.16,419.14,486.08,418.55,486Z"/></g><g id="Layer_10" data-name="Layer 10"><g class="cls-13"><polygon points="30.27 152.87 30.27 24.73 67.84 24.73 67.84 111.79 117.08 107.38 117.08 24.73 154.65 24.73 154.65 245.59 117.08 252.62 117.08 245.59 117.08 145.1 30.27 152.87"/><polygon points="426.76 193.2 426.76 25.29 397.4 25.29 397.4 89.87 358.93 93.31 358.93 25.29 329.57 25.29 329.57 125.41 397.4 119.34 397.4 197.87 397.4 198.82 426.76 193.2"/><path d="M291.5,24.73H206.19c-8.92,0-16.15,7.91-16.15,17.67V217.09c0,9.76,7.23,17.67,16.15,17.67h6.34l81.64-15.45a16.33,16.33,0,0,0,13.47-16.17v-162A16.27,16.27,0,0,0,291.5,24.73Zm-17,155.87-39.68,4.82V64.21l39.68-1.43Z"/></g><g class="cls-14"><polygon class="cls-10" points="45.41 159.72 45.41 31.58 82.98 31.58 82.98 118.64 132.22 114.23 132.22 31.58 169.79 31.58 169.79 252.44 132.22 259.47 132.22 252.44 132.22 151.95 45.41 159.72"/><path class="cls-4" d="M45.08,160.09c-.64-10-1.1-20.49-1.45-31.1-.21-5.28-.29-10.68-.44-16L43,96.73c0-5.44,0-10.88,0-16.33s.11-10.9.29-16.35c.28-10.89.75-21.76,1.65-32.47l0-.4.46-.1a68.69,68.69,0,0,1,9.4-1.21c3.13-.21,6.26-.27,9.39-.24,1.56,0,3.13.05,4.69.13s3.14.13,4.7.24A90.9,90.9,0,0,1,83,31.08l.45.08,0,.42c1,7.25,1.44,14.51,1.88,21.76s.62,14.51.71,21.77.11,14.51-.28,21.76a171.08,171.08,0,0,1-2.31,21.77l-.54-.5c4-.92,8.13-1.57,12.21-2.15s8.18-1,12.28-1.44,8.21-.69,12.34-.86a122.35,122.35,0,0,1,12.41,0l-.46.5c-.61-3.44-1-6.89-1.31-10.33s-.57-6.89-.75-10.33c-.34-6.89-.42-13.78-.35-20.66s.26-13.78.65-20.67.86-13.77,1.76-20.66l.06-.43.44-.07c3.13-.49,6.26-.75,9.39-.95s6.27-.28,9.4-.3,6.26,0,9.39.22a78.81,78.81,0,0,1,9.39,1l.48.09,0,.41c.88,18.4,1.34,36.81,1.68,55.21s.47,36.81.51,55.22c0,9.2,0,18.41-.07,27.61s-.17,18.4-.35,27.61c-.32,18.4-.82,36.81-1.77,55.21v.31l-.4.18a61.06,61.06,0,0,1-9.11,3.23c-3.08.86-6.19,1.56-9.33,2.13s-6.29,1-9.47,1.34a67.32,67.32,0,0,1-9.66.33l-.55,0,0-.46c-.71-9-1-17.92-1.27-26.88s-.29-17.92-.22-26.88c0-4.48,0-9,.12-13.44s.14-9,.26-13.44c.24-9,.54-17.92,1.11-26.88l.55.5c-7.19,1.52-14.57,2.63-22,3.55S95.41,157.67,88,158.19s-14.76,1-22,1.31S51.8,160.05,45.08,160.09Zm.67-.74c7.75-1.26,15.14-2.33,22.41-3.3s14.38-1.83,21.46-2.58,14.07-1.29,21.13-1.68,14.15-.56,21.43-.34l.51,0,0,.48c.57,9,.88,17.92,1.11,26.88q.18,6.72.26,13.44c.08,4.48.11,9,.12,13.44.07,9,0,17.92-.22,26.88s-.56,17.92-1.27,26.88l-.59-.49a67.23,67.23,0,0,1,9.13-3.18q4.62-1.29,9.31-2.17c3.13-.61,6.28-1.08,9.46-1.39a61,61,0,0,1,9.67-.29l-.41.49c-.95-18.4-1.45-36.81-1.76-55.21-.18-9.21-.25-18.41-.36-27.61s-.1-18.41-.07-27.61c.05-18.41.16-36.81.52-55.22s.79-36.81,1.67-55.21l.5.5a80.94,80.94,0,0,1-9.39,1q-4.69.27-9.39.22c-3.13,0-6.26-.1-9.4-.3s-6.26-.46-9.39-1l.5-.5c.91,6.89,1.39,13.77,1.77,20.66s.57,13.78.64,20.67,0,13.77-.35,20.66c-.17,3.44-.43,6.89-.75,10.33s-.7,6.89-1.31,10.33l-.07.4-.38.1c-4.05,1-8.13,1.67-12.21,2.25s-8.18,1-12.29,1.34-8.21.62-12.34.76-8.25.23-12.4,0l-.46,0-.09-.47a169.26,169.26,0,0,1-2.3-21.77c-.39-7.25-.37-14.51-.29-21.76s.32-14.51.71-21.77.94-14.51,1.88-21.76l.5.5a90.86,90.86,0,0,1-9.39,1.07c-1.56.12-3.13.2-4.7.25s-3.13.11-4.69.12c-3.13,0-6.26,0-9.39-.23a68.69,68.69,0,0,1-9.4-1.21l.5-.5c.91,10.64,1.37,21.13,1.66,31.6.18,5.22.2,10.46.29,15.68s0,10.47,0,15.71l-.23,15.81c-.15,5.32-.23,10.6-.44,16C46.85,137.12,46.39,148,45.75,159.35Z"/><polygon class="cls-10" points="441.9 200.05 441.9 32.14 412.54 32.14 412.54 96.72 374.07 100.16 374.07 32.14 344.71 32.14 344.71 132.26 412.54 126.19 412.54 204.71 412.54 205.67 441.9 200.05"/><path class="cls-4" d="M441.51,199.73c-1-14.74-1.49-28.92-1.93-43s-.6-27.9-.55-41.68c0-6.9,0-13.8.12-20.67l.13-10.34.25-10.33c.38-13.8.89-27.62,1.87-41.58l.5.5c-2.45.37-4.9.57-7.34.7s-4.89.2-7.34.21-4.89,0-7.34-.18a73,73,0,0,1-7.34-.73l.5-.5c.4,5.38.62,10.76.8,16.14s.27,10.77.31,16.15.06,10.76-.11,16.14-.42,10.77-1,16.15l0,.35-.41.15a57.82,57.82,0,0,1-9.48,2.41c-3.19.57-6.38.94-9.59,1.19s-6.43.4-9.66.41a76.23,76.23,0,0,1-9.75-.57l-.48-.07-.06-.43c-.79-5.67-1.2-11.34-1.47-17s-.4-11.33-.36-17,.15-11.34.43-17,.66-11.34,1.4-17l.5.5c-2.45.45-4.9.69-7.34.9s-4.9.3-7.34.36-4.89.08-7.34-.1c-1.22-.09-2.45-.21-3.67-.4a28.16,28.16,0,0,1-3.67-.76l.5-.5c.59,8.34.9,16.68,1.1,25,.13,4.17.15,8.34.23,12.51l.06,12.52c0,8.34-.09,16.69-.31,25s-.51,16.69-1.08,25l-.54-.5c5.61-.91,11.24-1.63,16.88-2.33s11.28-1.29,16.93-1.85,11.3-1.1,17-1.43,11.35-.59,17.06-.46l.5,0,0,.48c.59,6.63.84,13.25,1,19.87s.14,13.25.11,19.87c-.09,13.24-.37,26.49-1.11,39.74l-.59-.5a52.22,52.22,0,0,1,6.87-2.42c2.27-.66,4.56-1.16,6.89-1.6s4.7-.77,7.21-1S438.56,199.75,441.51,199.73Zm.77.64a46.34,46.34,0,0,1-6.59,2.4c-2.38.7-4.89,1.3-7.46,1.8s-5.17.93-7.79,1.2a53.92,53.92,0,0,1-7.81.39l-.56,0,0-.47c-.74-13.25-1-26.5-1.1-39.74,0-6.62-.08-13.25.1-19.87s.41-13.24,1-19.87l.55.5c-5.6,1.14-11.23,1.91-16.87,2.58s-11.29,1.13-17,1.6-11.32.85-17,1.19-11.35.6-17,.7h-.51l0-.51c-.57-8.34-.87-16.69-1.08-25s-.29-16.69-.31-25l.06-12.52c.08-4.17.1-8.34.23-12.51.2-8.35.51-16.69,1.1-25l0-.37.47-.13a25.2,25.2,0,0,1,3.67-.76c1.22-.2,2.45-.32,3.67-.41,2.45-.17,4.89-.15,7.34-.1s4.89.17,7.34.36,4.89.46,7.34.91l.44.08.06.42c.73,5.66,1.11,11.33,1.39,17s.41,11.34.43,17-.1,11.34-.36,17-.67,11.34-1.46,17l-.55-.5a76.09,76.09,0,0,1,9.49-2.28c3.18-.58,6.38-1,9.58-1.32s6.42-.53,9.65-.53a57.66,57.66,0,0,1,9.76.69l-.46.5c-.58-5.38-.82-10.77-1-16.15s-.15-10.76-.12-16.14.15-10.77.31-16.15.4-10.76.8-16.14l0-.43.47-.07a70.18,70.18,0,0,1,7.34-.74c2.45-.14,4.89-.18,7.34-.18s4.89.06,7.34.21,4.89.33,7.34.71l.47.07,0,.43c1,14,1.49,28.18,1.86,42.37l.25,10.66.14,10.65c.11,7.12.12,14.21.11,21.31.06,14.2-.2,28.31-.55,42.28S443.24,187.13,442.28,200.37Z"/><path class="cls-6" d="M306.64,31.58H221.33c-8.92,0-16.14,7.91-16.14,17.67V223.94c0,9.76,7.22,17.67,16.14,17.67h6.34l81.64-15.45A16.32,16.32,0,0,0,322.78,210V48A16.27,16.27,0,0,0,306.64,31.58Zm-17,155.87L250,192.27V71.06l39.68-1.43Z"/><path class="cls-4" d="M306.64,32.94l-39.94.18c-13.31.06-26.62.26-39.93.37l-5,.06c-.44,0-.78,0-1.14.05a6.59,6.59,0,0,0-1.08.11l-1.06.19-1,.31a13.94,13.94,0,0,0-3.83,2,16.69,16.69,0,0,0-3.07,3.1,18.58,18.58,0,0,0-2.08,3.85,18.64,18.64,0,0,0-1,4.29c-.05.37,0,.74-.05,1.11s0,.71,0,1.15l0,2.5.05,5c.16,13.31.17,26.62.27,39.93s.09,26.62.09,39.93l0,39.94,0,39.93v6.24c0,.42,0,.85,0,1.18l.05,1.08c0,.35.1.7.14,1.06a15.49,15.49,0,0,0,1.19,4.07,14.07,14.07,0,0,0,2.23,3.58,13.08,13.08,0,0,0,6.84,4.37,6.56,6.56,0,0,0,1,.2,5.58,5.58,0,0,0,1,.12l1,.06h6.24l-.51,0,72.15-13.49,9-1.68.56-.1.48-.11a7.3,7.3,0,0,0,.95-.22l.92-.29.89-.37a14.14,14.14,0,0,0,3.25-2.05,13.86,13.86,0,0,0,4.23-6.38,13.09,13.09,0,0,0,.65-3.83c0-.3,0-.69,0-1.08v-3.44l.09-36.69q0-18.35.18-36.69c.06-12.23.21-24.46.35-36.69l.38-36.69,0-9.17c0-.75,0-1.56,0-2.26a14.62,14.62,0,0,0-.18-2.09,18.26,18.26,0,0,0-.44-2.05,17.11,17.11,0,0,0-.76-1.95,14.92,14.92,0,0,0-5.4-6.27,14.31,14.31,0,0,0-3.78-1.76A15.52,15.52,0,0,0,306.64,32.94Zm0-2.72a18.56,18.56,0,0,1,4.91.71A16.93,16.93,0,0,1,316.06,33a17.58,17.58,0,0,1,6.45,7.4,19.24,19.24,0,0,1,.91,2.32,18.19,18.19,0,0,1,.55,2.43,15.65,15.65,0,0,1,.23,2.47c0,.82,0,1.55,0,2.32l0,9.17.38,36.69c.14,12.23.3,24.46.35,36.69s.17,24.46.18,36.69l.1,36.69v3.44c0,.38,0,.76,0,1.22a18.31,18.31,0,0,1-.86,5.19,18.88,18.88,0,0,1-5.72,8.73,19.33,19.33,0,0,1-4.46,2.85,20.82,20.82,0,0,1-5,1.48l-9,1.73-72.05,13.8-.25.05h-6.5l-1.46-.08a10.2,10.2,0,0,1-1.46-.17,11.65,11.65,0,0,1-1.45-.3,18.56,18.56,0,0,1-9.71-6.17,19.85,19.85,0,0,1-3-4.87,20.68,20.68,0,0,1-1.6-5.47c-.06-.47-.14-.94-.18-1.42l-.07-1.42c0-.49,0-.89,0-1.31V177l0-39.94c0-13.31,0-26.62.09-39.93s.11-26.62.27-39.93l.05-5,0-2.5c0-.4,0-.88,0-1.34s0-.93.1-1.39a22.9,22.9,0,0,1,1.35-5.39,22.36,22.36,0,0,1,2.75-4.85,20.59,20.59,0,0,1,4-3.88,18.23,18.23,0,0,1,5-2.49,17.93,17.93,0,0,1,5.53-.74l5,.05c13.31.12,26.62.32,39.93.38Z"/><path class="cls-4" d="M290.64,188.35l-20,3.15c-6.75,1.05-13.6,2-20.44,2.94l-2.41.34,0-2.51c-.19-10.1-.26-20.21-.33-30.31s-.19-20.2-.19-30.3l-.08-30.3,0-30.3V68.4l2.66-.1c13.23-.49,26.46-.84,39.68-1.27l2.71-.08v2.68L292,99.51c-.08,9.95-.15,19.92-.3,29.83s-.24,19.84-.46,29.67S290.89,178.65,290.64,188.35Zm-2-1.8L288,157c-.21-9.81-.32-19.52-.46-29.24s-.21-19.4-.29-29.08l-.19-29,2.69,2.6c-13.22.52-26.45,1.12-39.67,1.59l2.66-2.76,0,30.3-.07,30.3c0,10.1-.12,20.2-.19,30.3s-.14,20.21-.33,30.31l-2.46-2.18c6.39-.66,12.77-1.32,19.25-1.88Z"/></g></g></svg>