<svg id="Layer_1" data-name="Layer 1" xmlns="http://www.w3.org/2000/svg" viewBox="0 0 60 60"><defs><style>.cls-1{fill:#4f6d84;}.cls-2{fill:none;stroke:#fff;stroke-miterlimit:10;}.cls-3{fill:#fefefe;}.cls-4{fill:#fff;}</style></defs><title>bt-type-iconsArtboard 1</title><rect class="cls-1" x="0.35" y="0.35" width="59.31" height="59.31" rx="4"/><path class="cls-2" d="M24.14,38.39l9.21.19a1.57,1.57,0,0,1,1.75,1.75c-.06,1.93-2.69,4.61-4.61,4.61H24.76L33.26,46l8.35-3,5.19-2.4c1.75-.81,5.26.52,6.12,2.25a1.57,1.57,0,0,1-.86,2.32L43.6,49.31l-9.87,4.23a31.08,31.08,0,0,1-8.17,1h-19V39.06H11.9l2.62-.69a11.17,11.17,0,0,1,8.15-.54l1.18.45Z"/><path class="cls-2" d="M34.32,42.29l2.23-1.93L39.78,37c1.08-1.12,4.12-1.13,5.28-.08a1.27,1.27,0,0,1,0,2l-3.9,4.21"/><line class="cls-2" x1="24.76" y1="44.94" x2="21.98" y2="44.94"/><path class="cls-3" d="M29.36,14.48A10.22,10.22,0,1,0,39.58,24.7,10.22,10.22,0,0,0,29.36,14.48Zm2.38,16.19a4.94,4.94,0,0,1-1.46.35c-.15,0-.21,0-.2.21,0,.35,0,.71,0,1.06,0,.11,0,.17-.15.16-.28,0-.56,0-.84,0-.11,0-.14,0-.14-.14,0-.36,0-.73,0-1.09,0-.14,0-.2-.18-.22a5,5,0,0,1-2.23-.73,3.22,3.22,0,0,1-1.51-2.59c0-.14,0-.17.17-.17H27.5c.15,0,.18,0,.2.18A1.51,1.51,0,0,0,28.77,29c.14,0,.2,0,.2-.14,0-.49,0-1,0-1.49s0-1,0-1.44a.23.23,0,0,0-.21-.27,8.45,8.45,0,0,1-2.12-.73,2.92,2.92,0,0,1-1.57-3.13,3.44,3.44,0,0,1,2.72-3,4.58,4.58,0,0,1,1-.2c.11,0,.15,0,.15-.16,0-.36,0-.72,0-1.07,0-.17.05-.2.2-.2a4.57,4.57,0,0,0,.74,0c.16,0,.19.06.19.21,0,.32,0,.65,0,1s.07.24.24.26a4.47,4.47,0,0,1,1.7.48,3.36,3.36,0,0,1,1.87,2.77c0,.13,0,.16-.16.15h-2.3c-.14,0-.19-.05-.21-.18a1.55,1.55,0,0,0-1-1.18c-.12-.06-.15,0-.15.1,0,1,0,2,0,3,0,.14.07.15.17.18a11.33,11.33,0,0,1,2,.62,2.84,2.84,0,0,1,1.73,2A3.5,3.5,0,0,1,31.74,30.67Z"/><path class="cls-3" d="M30.09,26c0,.06,0,.1,0,.14V29c0,.11.05.11.13.09a1.65,1.65,0,0,0,.52-.2,1.45,1.45,0,0,0,.43-2.2A2.38,2.38,0,0,0,30.09,26Z"/><path class="cls-3" d="M29,22V20.68c0-.07,0-.14-.11-.12a1.48,1.48,0,0,0-1.12,2.07,1.84,1.84,0,0,0,1.14.88c.14,0,.09-.07.09-.12C29,22.93,29,22.48,29,22Z"/><path class="cls-4" d="M40.14,5.89a6.94,6.94,0,0,0-6.94,6.7,10.23,10.23,0,0,1,8,7.11A6.95,6.95,0,0,0,40.14,5.89Z"/></svg>