<svg id="Layer_1" data-name="Layer 1" xmlns="http://www.w3.org/2000/svg" viewBox="0 0 60 60"><defs><style>.cls-1{fill:#0f1a28;}.cls-2{fill:none;stroke:#fff;stroke-miterlimit:10;}.cls-3{font-size:7.5px;font-family:Poppins-Bold, Poppins;font-weight:700;}.cls-3,.cls-4{fill:#fff;}.cls-4{font-size:4.5px;font-family:Poppins-SemiBold, Poppins;font-weight:600;}</style></defs><title>bt-type-iconsArtboard 1 copy 2</title><rect class="cls-1" x="0.23" y="0.27" width="59.47" height="59.47" rx="4"/><line class="cls-2" x1="18.02" y1="34.69" x2="18.02" y2="11.65"/><path class="cls-2" d="M40.4,11.65V43.06a1.11,1.11,0,0,1-1.11,1.11H23"/><line class="cls-2" x1="13.97" y1="11.65" x2="44.7" y2="11.65"/><path class="cls-2" d="M18,27.89c-6.79,4.83-6.58,8.64-6.58,8.64v20H30.69V49.81A5.87,5.87,0,0,0,34,44.17"/><path class="cls-2" d="M15.81,36.84l8.49-8.13a2,2,0,0,1,3.09,0c1.65,1.75,1.7,6.43,0,8.13l-5.05,5s2.14,3.8-.11,10.19"/><path class="cls-2" d="M18.2,19.65H7.63a1.11,1.11,0,0,1-1.1-1.11V5a1.11,1.11,0,0,1,1.1-1.11H53A1.11,1.11,0,0,1,54.05,5V18.54A1.11,1.11,0,0,1,53,19.65H40.26"/><text class="cls-3" transform="translate(33.01 14.17) rotate(90)">DEBIT</text><text class="cls-4" transform="translate(27.78 14.17) rotate(90)">Card</text></svg>