<svg id="Layer_1" data-name="Layer 1" xmlns="http://www.w3.org/2000/svg" viewBox="0 0 60 60"><defs><style>.cls-1{fill:#253549;}.cls-2{font-size:7.5px;font-family:Poppins-Bold, Poppins;font-weight:700;}.cls-2,.cls-3{fill:#fff;}.cls-3{font-size:4.5px;font-family:Poppins-SemiBold, Poppins;font-weight:600;}.cls-4{fill:none;stroke:#fff;stroke-miterlimit:10;}</style></defs><title>bt-type-iconsArtboard 1 copy 3</title><rect class="cls-1" x="0.33" y="0.29" width="59.42" height="59.42" rx="4"/><text class="cls-2" transform="translate(33.01 14.42) rotate(90)">CREDIT</text><text class="cls-3" transform="translate(27.78 14.42) rotate(90)">Card</text><line class="cls-4" x1="18.1" y1="34.69" x2="18.1" y2="11.67"/><path class="cls-4" d="M40.46,11.67V43.05a1.11,1.11,0,0,1-1.11,1.11H23.08"/><line class="cls-4" x1="14.06" y1="11.67" x2="44.76" y2="11.67"/><path class="cls-4" d="M18.1,27.89c-6.79,4.83-6.58,8.64-6.58,8.64V56.48H30.76V49.8a5.87,5.87,0,0,0,3.29-5.64"/><path class="cls-4" d="M15.89,36.84l8.49-8.13a2,2,0,0,1,3.08,0c1.65,1.75,1.7,6.43,0,8.13l-5,5s2.13,3.8-.12,10.18"/><path class="cls-4" d="M18.28,19.65H7.72a1.1,1.1,0,0,1-1.1-1.1V5.05a1.11,1.11,0,0,1,1.1-1.11H53a1.11,1.11,0,0,1,1.1,1.11v13.5a1.1,1.1,0,0,1-1.1,1.1H40.32"/></svg>