<svg id="Layer_1" data-name="Layer 1" xmlns="http://www.w3.org/2000/svg" viewBox="0 0 60 60"><defs><style>.cls-1{fill:#869ab2;}.cls-2{fill:none;stroke:#fff;stroke-miterlimit:10;}.cls-3{fill:#fefefe;}.cls-4{fill:#fff;}</style></defs><title>bt-type-iconsArtboard 1 copy</title><rect class="cls-1" x="0.36" y="0.46" width="59.28" height="59.28" rx="4"/><path class="cls-2" d="M24.29,37.83l9.2.2a1.57,1.57,0,0,1,1.75,1.75c-.06,1.93-2.68,4.61-4.6,4.61H24.91l8.49,1,8.35-3L47,40c1.74-.8,5.25.53,6.11,2.25a1.57,1.57,0,0,1-.86,2.32l-8.46,4.14L33.88,53a31.11,31.11,0,0,1-8.17,1H6.7V38.51h5.36l2.62-.69a11.09,11.09,0,0,1,8.14-.54l1.18.45Z"/><path class="cls-2" d="M34.47,41.73,36.7,39.8l3.22-3.33c1.09-1.12,4.13-1.14,5.28-.09a1.28,1.28,0,0,1,0,2l-3.89,4.2"/><line class="cls-2" x1="24.91" y1="44.39" x2="22.13" y2="44.39"/><path class="cls-3" d="M29.51,13.93A10.22,10.22,0,1,0,39.73,24.15,10.23,10.23,0,0,0,29.51,13.93ZM33,30.29H26.3v-.36c.23,0,.46,0,.68,0a1,1,0,0,0,1.09-1,2.3,2.3,0,0,0,0-.37q0-4.66,0-9.33c0-.13,0-.26,0-.39a1,1,0,0,0-1-1c-.25,0-.5,0-.77,0v-.33H33v.33l-.69,0a1,1,0,0,0-1.07,1.11c0,1,0,2,0,2.94q0,3,0,6.08c0,.29,0,.58,0,.86a1.08,1.08,0,0,0,1.1,1.14c.21,0,.43,0,.66,0Z"/><path class="cls-4" d="M38.12,10.16l2.44,3.23,2.27-4.71L41.74,9,41.33,7.7l3.22-1a6.94,6.94,0,0,0-11.2,5.23c.37.07.74.16,1.1.26Z"/><path class="cls-4" d="M44.87,7l.87,3-1.32.38-.33-1.13L40.82,16c-.39-.51-.75-1-1.1-1.46-.62-.81-1.24-1.63-1.85-2.45-.1-.13-.16-.15-.3-.07l-1.46.81a10.26,10.26,0,0,1,5.24,6.2A6.94,6.94,0,0,0,44.87,7Z"/></svg>