<svg id="Layer_1" data-name="Layer 1" xmlns="http://www.w3.org/2000/svg" viewBox="0 0 16 16"><defs><style>.cls-1{fill:#465977;}.cls-2{font-size:10px;font-family:Poppins-Medium, Poppins;font-weight:500;}.cls-2,.cls-4{fill:#fff;}.cls-3{fill:none;stroke:#fff;stroke-miterlimit:10;stroke-width:0.75px;}</style></defs><title>bt-favicon-lbArtboard 1</title><rect class="cls-1" width="16" height="16"/><text class="cls-2" transform="translate(4.96 11.47)">$</text><path class="cls-3" d="M7.89,2.38H8a5.47,5.47,0,1,1-1,.1"/><path class="cls-4" d="M6.88,2.11a.23.23,0,0,1,.26.18l.06.3A.23.23,0,0,1,7,2.85"/><line class="cls-3" x1="8" y1="2.76" x2="8" y2="0.78"/><rect class="cls-4" x="7.63" y="0.24" width="0.75" height="2.38" rx="0.22"/><line class="cls-3" x1="8" y1="13.24" x2="8" y2="15.22"/><rect class="cls-4" x="7.63" y="13.37" width="0.75" height="2.38" rx="0.22"/><line class="cls-3" x1="13.25" y1="8" x2="15.22" y2="8"/><rect class="cls-4" x="14.19" y="6.81" width="0.75" height="2.38" rx="0.22" transform="translate(22.57 -6.57) rotate(90)"/><line class="cls-3" x1="2.76" y1="8" x2="0.78" y2="8"/><rect class="cls-4" x="1.06" y="6.81" width="0.75" height="2.38" rx="0.22" transform="translate(9.44 6.56) rotate(90)"/></svg>