<svg id="Layer_1" data-name="Layer 1" xmlns="http://www.w3.org/2000/svg" viewBox="0 0 16 16"><defs><style>.cls-1{fill:#0f1a28;}.cls-2{font-size:11.22px;font-family:Poppins-Regular, Poppins;}.cls-2,.cls-4{fill:#fff;}.cls-3{fill:none;stroke:#fff;stroke-miterlimit:10;stroke-width:0.75px;}</style></defs><title>bt-faviconArtboard 1</title><rect class="cls-1" width="16" height="16"/><text class="cls-2" transform="translate(4.59 11.81)">$</text><path class="cls-3" d="M7.87,1.61H8a6.19,6.19,0,1,1-1.17.12"/><path class="cls-4" d="M6.75,1.35A.23.23,0,0,1,7,1.53l.05.29a.21.21,0,0,1-.17.26"/><line class="cls-3" x1="7.95" y1="1.99" x2="7.95" y2="-0.23"/><rect class="cls-4" x="7.58" y="-0.79" width="0.84" height="2.68" rx="0.22"/><line class="cls-3" x1="8" y1="13.8" x2="8" y2="16.02"/><rect class="cls-4" x="7.58" y="13.94" width="0.84" height="2.68" rx="0.22"/><line class="cls-3" x1="13.89" y1="7.91" x2="16.1" y2="7.91"/><rect class="cls-4" x="14.95" y="6.57" width="0.84" height="2.68" rx="0.22" transform="translate(23.28 -7.46) rotate(90)"/><line class="cls-3" x1="2.11" y1="7.91" x2="-0.1" y2="7.91"/><rect class="cls-4" x="0.21" y="6.57" width="0.84" height="2.68" rx="0.22" transform="translate(8.55 7.28) rotate(90)"/></svg>